G04 EAGLE Gerber RS-274X export*
G75*
%MOMM*%
%FSLAX34Y34*%
%LPD*%
%INTop Copper*%
%IPPOS*%
%AMOC8*
5,1,8,0,0,1.08239X$1,22.5*%
G01*
%ADD10R,2.550000X2.500000*%
%ADD11R,1.800000X1.600000*%
%ADD12R,2.400000X2.400000*%
%ADD13R,1.300000X0.700000*%
%ADD14R,2.400000X3.400000*%
%ADD15C,0.500000*%
%ADD16C,1.000000*%
%ADD17R,1.000000X1.100000*%
%ADD18R,1.800000X1.200000*%
%ADD19R,1.200000X1.800000*%
%ADD20C,1.524000*%
%ADD21R,0.750000X0.300000*%
%ADD22R,0.812800X0.304800*%
%ADD23R,0.304800X0.812800*%
%ADD24R,2.794000X2.794000*%
%ADD25R,0.550000X1.200000*%
%ADD26C,0.304800*%
%ADD27C,0.812800*%
%ADD28C,0.508000*%
%ADD29C,0.756400*%
%ADD30C,0.609600*%
%ADD31C,0.406400*%
%ADD32C,1.016000*%

G36*
X633505Y10177D02*
X633505Y10177D01*
X633736Y10187D01*
X633790Y10197D01*
X633844Y10201D01*
X634070Y10249D01*
X634296Y10291D01*
X634348Y10308D01*
X634402Y10320D01*
X634618Y10399D01*
X634836Y10472D01*
X634885Y10497D01*
X634937Y10516D01*
X635140Y10624D01*
X635345Y10727D01*
X635391Y10758D01*
X635439Y10784D01*
X635625Y10920D01*
X635814Y11051D01*
X635855Y11088D01*
X635899Y11121D01*
X636064Y11281D01*
X636233Y11437D01*
X636268Y11480D01*
X636307Y11518D01*
X636448Y11700D01*
X636594Y11878D01*
X636622Y11926D01*
X636656Y11969D01*
X636770Y12169D01*
X636889Y12366D01*
X636911Y12416D01*
X636938Y12464D01*
X637023Y12678D01*
X637114Y12889D01*
X637128Y12942D01*
X637148Y12993D01*
X637203Y13218D01*
X637263Y13439D01*
X637267Y13483D01*
X637283Y13547D01*
X637338Y14114D01*
X637335Y14180D01*
X637339Y14224D01*
X637339Y236476D01*
X637323Y236705D01*
X637313Y236936D01*
X637303Y236990D01*
X637299Y237044D01*
X637251Y237270D01*
X637209Y237496D01*
X637192Y237548D01*
X637180Y237602D01*
X637101Y237818D01*
X637028Y238036D01*
X637003Y238085D01*
X636984Y238137D01*
X636876Y238340D01*
X636773Y238545D01*
X636742Y238591D01*
X636716Y238639D01*
X636580Y238825D01*
X636449Y239014D01*
X636412Y239055D01*
X636379Y239099D01*
X636219Y239264D01*
X636063Y239433D01*
X636020Y239468D01*
X635982Y239507D01*
X635800Y239648D01*
X635622Y239794D01*
X635574Y239822D01*
X635531Y239856D01*
X635331Y239970D01*
X635134Y240089D01*
X635084Y240111D01*
X635036Y240138D01*
X634822Y240223D01*
X634611Y240314D01*
X634558Y240328D01*
X634507Y240348D01*
X634282Y240403D01*
X634061Y240463D01*
X634017Y240467D01*
X633953Y240483D01*
X633386Y240538D01*
X633320Y240535D01*
X633276Y240539D01*
X14224Y240539D01*
X13995Y240523D01*
X13764Y240513D01*
X13710Y240503D01*
X13656Y240499D01*
X13430Y240451D01*
X13204Y240409D01*
X13152Y240392D01*
X13098Y240380D01*
X12882Y240301D01*
X12664Y240228D01*
X12615Y240203D01*
X12563Y240184D01*
X12360Y240076D01*
X12155Y239973D01*
X12109Y239942D01*
X12061Y239916D01*
X11875Y239780D01*
X11686Y239649D01*
X11645Y239612D01*
X11601Y239579D01*
X11436Y239419D01*
X11267Y239263D01*
X11232Y239220D01*
X11193Y239182D01*
X11052Y239000D01*
X10906Y238822D01*
X10878Y238774D01*
X10844Y238731D01*
X10730Y238531D01*
X10611Y238334D01*
X10589Y238284D01*
X10562Y238236D01*
X10477Y238022D01*
X10386Y237811D01*
X10372Y237758D01*
X10352Y237707D01*
X10297Y237482D01*
X10237Y237261D01*
X10233Y237217D01*
X10217Y237153D01*
X10162Y236586D01*
X10165Y236520D01*
X10161Y236476D01*
X10161Y233832D01*
X10169Y233717D01*
X10167Y233602D01*
X10189Y233433D01*
X10201Y233263D01*
X10225Y233151D01*
X10239Y233036D01*
X10284Y232872D01*
X10320Y232706D01*
X10359Y232598D01*
X10390Y232487D01*
X10457Y232331D01*
X10516Y232171D01*
X10570Y232069D01*
X10616Y231964D01*
X10704Y231819D01*
X10784Y231669D01*
X10852Y231576D01*
X10912Y231477D01*
X11020Y231346D01*
X11121Y231209D01*
X11201Y231126D01*
X11274Y231037D01*
X11400Y230922D01*
X11518Y230801D01*
X11609Y230730D01*
X11694Y230652D01*
X11834Y230556D01*
X11969Y230452D01*
X12069Y230395D01*
X12164Y230330D01*
X12316Y230254D01*
X12464Y230170D01*
X12571Y230127D01*
X12674Y230076D01*
X12835Y230022D01*
X12993Y229959D01*
X13106Y229932D01*
X13215Y229896D01*
X13382Y229865D01*
X13547Y229825D01*
X13662Y229814D01*
X13775Y229793D01*
X13945Y229787D01*
X14114Y229770D01*
X14229Y229775D01*
X14345Y229770D01*
X14514Y229787D01*
X14684Y229795D01*
X14797Y229816D01*
X14912Y229827D01*
X15077Y229868D01*
X15244Y229899D01*
X15353Y229935D01*
X15465Y229963D01*
X15623Y230026D01*
X15784Y230080D01*
X15887Y230132D01*
X15994Y230174D01*
X16141Y230259D01*
X16293Y230335D01*
X16388Y230401D01*
X16488Y230458D01*
X16577Y230531D01*
X16762Y230659D01*
X17006Y230884D01*
X17097Y230959D01*
X17323Y231185D01*
X18444Y231649D01*
X102206Y231649D01*
X103327Y231185D01*
X108385Y226127D01*
X108849Y225006D01*
X108849Y214288D01*
X108865Y214059D01*
X108875Y213828D01*
X108885Y213774D01*
X108889Y213720D01*
X108937Y213494D01*
X108979Y213268D01*
X108996Y213216D01*
X109008Y213162D01*
X109087Y212946D01*
X109160Y212728D01*
X109185Y212679D01*
X109204Y212627D01*
X109312Y212424D01*
X109415Y212219D01*
X109446Y212173D01*
X109472Y212125D01*
X109608Y211939D01*
X109739Y211750D01*
X109776Y211709D01*
X109809Y211665D01*
X109969Y211500D01*
X110125Y211331D01*
X110168Y211296D01*
X110206Y211257D01*
X110388Y211116D01*
X110566Y210970D01*
X110614Y210942D01*
X110657Y210908D01*
X110857Y210794D01*
X110941Y210743D01*
X111052Y210641D01*
X111097Y210610D01*
X111138Y210574D01*
X111331Y210449D01*
X111521Y210319D01*
X111571Y210294D01*
X111617Y210264D01*
X111826Y210167D01*
X112032Y210065D01*
X112084Y210048D01*
X112133Y210025D01*
X112354Y209958D01*
X112572Y209885D01*
X112626Y209875D01*
X112679Y209859D01*
X112906Y209824D01*
X113133Y209783D01*
X113188Y209780D01*
X113242Y209772D01*
X113472Y209769D01*
X113483Y209768D01*
X113491Y209768D01*
X113702Y209760D01*
X113757Y209765D01*
X113812Y209764D01*
X114026Y209792D01*
X114053Y209793D01*
X114075Y209797D01*
X114269Y209816D01*
X114322Y209829D01*
X114377Y209836D01*
X114569Y209889D01*
X114613Y209897D01*
X114650Y209910D01*
X114823Y209952D01*
X114874Y209972D01*
X114926Y209987D01*
X115093Y210059D01*
X115153Y210079D01*
X115191Y210099D01*
X115352Y210164D01*
X115399Y210191D01*
X115450Y210213D01*
X115646Y210332D01*
X115846Y210447D01*
X115864Y210462D01*
X115922Y210501D01*
X115936Y210509D01*
X115941Y210514D01*
X116597Y210952D01*
X117059Y211143D01*
X117550Y211241D01*
X118737Y211241D01*
X118737Y203200D01*
X118753Y202971D01*
X118763Y202741D01*
X118773Y202687D01*
X118777Y202632D01*
X118825Y202407D01*
X118867Y202181D01*
X118884Y202128D01*
X118896Y202075D01*
X118975Y201859D01*
X119048Y201640D01*
X119073Y201591D01*
X119091Y201540D01*
X119200Y201337D01*
X119303Y201131D01*
X119334Y201086D01*
X119360Y201037D01*
X119496Y200852D01*
X119627Y200662D01*
X119664Y200622D01*
X119697Y200577D01*
X119857Y200413D01*
X120013Y200243D01*
X120014Y200243D01*
X120056Y200208D01*
X120094Y200169D01*
X120095Y200169D01*
X120276Y200028D01*
X120455Y199882D01*
X120502Y199853D01*
X120545Y199820D01*
X120745Y199706D01*
X120942Y199586D01*
X120992Y199565D01*
X121040Y199538D01*
X121255Y199452D01*
X121466Y199362D01*
X121518Y199348D01*
X121570Y199327D01*
X121794Y199273D01*
X122016Y199213D01*
X122060Y199209D01*
X122124Y199193D01*
X122691Y199138D01*
X122756Y199141D01*
X122800Y199137D01*
X130341Y199137D01*
X130341Y197450D01*
X130243Y196959D01*
X130052Y196497D01*
X129774Y196080D01*
X129352Y195659D01*
X129277Y195572D01*
X129194Y195492D01*
X129090Y195357D01*
X128979Y195229D01*
X128916Y195132D01*
X128845Y195041D01*
X128761Y194894D01*
X128669Y194751D01*
X128620Y194646D01*
X128563Y194546D01*
X128500Y194388D01*
X128429Y194234D01*
X128396Y194124D01*
X128353Y194017D01*
X128313Y193851D01*
X128264Y193689D01*
X128246Y193575D01*
X128219Y193463D01*
X128202Y193293D01*
X128176Y193126D01*
X128175Y193011D01*
X128164Y192896D01*
X128171Y192726D01*
X128169Y192556D01*
X128183Y192442D01*
X128188Y192326D01*
X128219Y192159D01*
X128241Y191991D01*
X128271Y191879D01*
X128292Y191766D01*
X128346Y191605D01*
X128391Y191441D01*
X128437Y191335D01*
X128474Y191226D01*
X128550Y191074D01*
X128617Y190918D01*
X128677Y190820D01*
X128729Y190717D01*
X128825Y190576D01*
X128914Y190432D01*
X128987Y190343D01*
X129052Y190248D01*
X129168Y190123D01*
X129276Y189992D01*
X129360Y189914D01*
X129439Y189829D01*
X129570Y189721D01*
X129696Y189606D01*
X129790Y189541D01*
X129880Y189468D01*
X130025Y189380D01*
X130165Y189284D01*
X130268Y189232D01*
X130367Y189173D01*
X130523Y189106D01*
X130675Y189030D01*
X130785Y188994D01*
X130891Y188948D01*
X131055Y188904D01*
X131216Y188850D01*
X131329Y188829D01*
X131441Y188799D01*
X131555Y188788D01*
X131777Y188748D01*
X132108Y188734D01*
X132225Y188723D01*
X146673Y188723D01*
X146733Y188727D01*
X146793Y188725D01*
X147017Y188747D01*
X147241Y188763D01*
X147300Y188775D01*
X147360Y188781D01*
X147579Y188835D01*
X147798Y188882D01*
X147855Y188902D01*
X147914Y188917D01*
X148123Y189000D01*
X148334Y189078D01*
X148387Y189106D01*
X148443Y189128D01*
X148638Y189240D01*
X148836Y189346D01*
X148885Y189382D01*
X148937Y189412D01*
X149028Y189487D01*
X149296Y189683D01*
X149457Y189840D01*
X149546Y189913D01*
X161585Y201952D01*
X161625Y201998D01*
X161669Y202038D01*
X161811Y202213D01*
X161959Y202382D01*
X161992Y202433D01*
X162030Y202480D01*
X162147Y202672D01*
X162269Y202860D01*
X162294Y202915D01*
X162325Y202967D01*
X162414Y203173D01*
X162509Y203377D01*
X162526Y203435D01*
X162550Y203490D01*
X162608Y203707D01*
X162674Y203922D01*
X162683Y203982D01*
X162699Y204040D01*
X162710Y204158D01*
X162761Y204486D01*
X162764Y204710D01*
X162775Y204825D01*
X162775Y209332D01*
X163668Y210225D01*
X175202Y210225D01*
X175326Y210167D01*
X175532Y210065D01*
X175584Y210048D01*
X175633Y210025D01*
X175854Y209958D01*
X176072Y209885D01*
X176126Y209875D01*
X176179Y209859D01*
X176406Y209824D01*
X176633Y209783D01*
X176688Y209780D01*
X176742Y209772D01*
X176972Y209769D01*
X176983Y209768D01*
X176991Y209768D01*
X177202Y209760D01*
X177257Y209765D01*
X177312Y209764D01*
X177526Y209792D01*
X177553Y209793D01*
X177575Y209797D01*
X177769Y209816D01*
X177822Y209829D01*
X177877Y209836D01*
X178069Y209889D01*
X178113Y209897D01*
X178150Y209910D01*
X178323Y209952D01*
X178374Y209972D01*
X178426Y209987D01*
X178593Y210059D01*
X178653Y210079D01*
X178691Y210099D01*
X178852Y210164D01*
X178899Y210191D01*
X178950Y210213D01*
X179146Y210332D01*
X179346Y210447D01*
X179364Y210462D01*
X179422Y210501D01*
X179436Y210509D01*
X179441Y210514D01*
X180097Y210952D01*
X180559Y211143D01*
X181050Y211241D01*
X182237Y211241D01*
X182237Y203200D01*
X182237Y195159D01*
X181050Y195159D01*
X180559Y195257D01*
X180097Y195448D01*
X179348Y195949D01*
X179269Y195993D01*
X179142Y196081D01*
X179092Y196106D01*
X179046Y196136D01*
X178909Y196200D01*
X178853Y196231D01*
X178788Y196257D01*
X178631Y196335D01*
X178579Y196352D01*
X178530Y196375D01*
X178366Y196425D01*
X178323Y196442D01*
X178274Y196454D01*
X178091Y196515D01*
X178037Y196525D01*
X177984Y196541D01*
X177797Y196570D01*
X177770Y196576D01*
X177737Y196580D01*
X177530Y196617D01*
X177475Y196620D01*
X177421Y196628D01*
X177216Y196631D01*
X177203Y196632D01*
X177186Y196631D01*
X176961Y196640D01*
X176906Y196635D01*
X176851Y196636D01*
X176623Y196607D01*
X176394Y196584D01*
X176341Y196571D01*
X176286Y196564D01*
X176064Y196503D01*
X175841Y196448D01*
X175790Y196428D01*
X175737Y196413D01*
X175525Y196322D01*
X175311Y196236D01*
X175264Y196209D01*
X175214Y196187D01*
X175194Y196175D01*
X170425Y196175D01*
X170365Y196171D01*
X170305Y196173D01*
X170081Y196151D01*
X169857Y196135D01*
X169798Y196123D01*
X169738Y196117D01*
X169519Y196063D01*
X169300Y196016D01*
X169243Y195996D01*
X169184Y195981D01*
X168975Y195898D01*
X168764Y195820D01*
X168711Y195792D01*
X168655Y195770D01*
X168460Y195658D01*
X168262Y195552D01*
X168213Y195516D01*
X168161Y195486D01*
X168070Y195411D01*
X167802Y195215D01*
X167641Y195058D01*
X167552Y194985D01*
X160352Y187785D01*
X160276Y187698D01*
X160194Y187618D01*
X160090Y187483D01*
X159978Y187355D01*
X159916Y187258D01*
X159845Y187167D01*
X159761Y187020D01*
X159668Y186877D01*
X159620Y186772D01*
X159563Y186672D01*
X159500Y186514D01*
X159429Y186360D01*
X159395Y186250D01*
X159353Y186143D01*
X159313Y185977D01*
X159263Y185815D01*
X159246Y185701D01*
X159219Y185589D01*
X159202Y185419D01*
X159176Y185252D01*
X159174Y185137D01*
X159163Y185022D01*
X159171Y184852D01*
X159168Y184682D01*
X159183Y184568D01*
X159188Y184452D01*
X159219Y184285D01*
X159240Y184117D01*
X159271Y184005D01*
X159292Y183892D01*
X159346Y183731D01*
X159391Y183567D01*
X159437Y183461D01*
X159473Y183352D01*
X159549Y183200D01*
X159617Y183044D01*
X159677Y182946D01*
X159728Y182843D01*
X159825Y182703D01*
X159913Y182558D01*
X159987Y182469D01*
X160052Y182374D01*
X160167Y182249D01*
X160275Y182117D01*
X160360Y182040D01*
X160438Y181955D01*
X160570Y181847D01*
X160695Y181732D01*
X160790Y181667D01*
X160879Y181594D01*
X161025Y181506D01*
X161165Y181410D01*
X161268Y181358D01*
X161367Y181299D01*
X161523Y181232D01*
X161675Y181156D01*
X161785Y181120D01*
X161890Y181074D01*
X162054Y181030D01*
X162216Y180976D01*
X162329Y180955D01*
X162440Y180925D01*
X162555Y180914D01*
X162776Y180874D01*
X163108Y180860D01*
X163225Y180849D01*
X181204Y180849D01*
X181264Y180853D01*
X181325Y180851D01*
X181548Y180873D01*
X181772Y180889D01*
X181832Y180901D01*
X181892Y180907D01*
X182110Y180961D01*
X182330Y181008D01*
X182386Y181028D01*
X182445Y181043D01*
X182654Y181126D01*
X182865Y181204D01*
X182918Y181232D01*
X182974Y181254D01*
X183169Y181366D01*
X183367Y181472D01*
X183416Y181508D01*
X183468Y181538D01*
X183559Y181613D01*
X183827Y181809D01*
X183988Y181966D01*
X184077Y182039D01*
X190261Y188223D01*
X190337Y188310D01*
X190419Y188390D01*
X190523Y188525D01*
X190635Y188653D01*
X190698Y188750D01*
X190768Y188841D01*
X190852Y188988D01*
X190945Y189131D01*
X190993Y189236D01*
X191050Y189336D01*
X191113Y189494D01*
X191185Y189648D01*
X191218Y189758D01*
X191261Y189865D01*
X191301Y190031D01*
X191350Y190193D01*
X191368Y190307D01*
X191395Y190419D01*
X191411Y190589D01*
X191437Y190756D01*
X191439Y190871D01*
X191450Y190986D01*
X191443Y191156D01*
X191445Y191326D01*
X191430Y191440D01*
X191425Y191556D01*
X191394Y191723D01*
X191373Y191891D01*
X191342Y192003D01*
X191321Y192116D01*
X191267Y192277D01*
X191222Y192441D01*
X191177Y192547D01*
X191140Y192656D01*
X191064Y192808D01*
X190997Y192964D01*
X190937Y193062D01*
X190885Y193165D01*
X190788Y193305D01*
X190700Y193450D01*
X190627Y193539D01*
X190561Y193634D01*
X190446Y193759D01*
X190363Y193859D01*
X190363Y203200D01*
X190363Y211241D01*
X191550Y211241D01*
X192041Y211143D01*
X192503Y210952D01*
X192920Y210673D01*
X193411Y210182D01*
X193429Y210158D01*
X193472Y210117D01*
X193509Y210072D01*
X193676Y209919D01*
X193838Y209761D01*
X193885Y209727D01*
X193929Y209687D01*
X194116Y209558D01*
X194298Y209425D01*
X194350Y209398D01*
X194399Y209364D01*
X194601Y209263D01*
X194801Y209157D01*
X194856Y209137D01*
X194909Y209110D01*
X195123Y209039D01*
X195336Y208961D01*
X195394Y208949D01*
X195449Y208931D01*
X195672Y208890D01*
X195893Y208843D01*
X195952Y208839D01*
X196010Y208828D01*
X196236Y208819D01*
X196462Y208803D01*
X196520Y208807D01*
X196579Y208805D01*
X196805Y208828D01*
X197030Y208844D01*
X197088Y208856D01*
X197146Y208862D01*
X197366Y208916D01*
X197587Y208963D01*
X197642Y208983D01*
X197700Y208997D01*
X197910Y209081D01*
X198122Y209159D01*
X198174Y209187D01*
X198229Y209209D01*
X198425Y209322D01*
X198624Y209429D01*
X198672Y209463D01*
X198723Y209493D01*
X198813Y209567D01*
X199084Y209765D01*
X199243Y209920D01*
X199332Y209993D01*
X206394Y217055D01*
X206394Y217056D01*
X207823Y218485D01*
X208944Y218949D01*
X235556Y218949D01*
X236677Y218485D01*
X242731Y212431D01*
X242776Y212391D01*
X242817Y212347D01*
X242991Y212205D01*
X243161Y212057D01*
X243212Y212024D01*
X243258Y211986D01*
X243451Y211869D01*
X243639Y211747D01*
X243694Y211722D01*
X243745Y211691D01*
X243952Y211602D01*
X244156Y211507D01*
X244214Y211490D01*
X244269Y211466D01*
X244486Y211408D01*
X244701Y211342D01*
X244761Y211333D01*
X244819Y211317D01*
X244936Y211306D01*
X245264Y211255D01*
X245489Y211252D01*
X245604Y211241D01*
X245737Y211241D01*
X245737Y203200D01*
X245737Y194148D01*
X245624Y194039D01*
X245455Y193883D01*
X245420Y193840D01*
X245381Y193802D01*
X245240Y193620D01*
X245094Y193442D01*
X245066Y193394D01*
X245032Y193351D01*
X244918Y193151D01*
X244799Y192954D01*
X244777Y192904D01*
X244750Y192856D01*
X244665Y192642D01*
X244574Y192431D01*
X244560Y192378D01*
X244540Y192327D01*
X244485Y192101D01*
X244425Y191881D01*
X244421Y191837D01*
X244405Y191773D01*
X244350Y191206D01*
X244353Y191140D01*
X244349Y191096D01*
X244349Y189904D01*
X244365Y189675D01*
X244375Y189444D01*
X244385Y189390D01*
X244389Y189336D01*
X244437Y189110D01*
X244479Y188884D01*
X244496Y188832D01*
X244508Y188778D01*
X244587Y188562D01*
X244660Y188344D01*
X244685Y188295D01*
X244704Y188243D01*
X244812Y188040D01*
X244915Y187835D01*
X244946Y187789D01*
X244972Y187741D01*
X245108Y187555D01*
X245239Y187366D01*
X245276Y187325D01*
X245309Y187281D01*
X245469Y187116D01*
X245625Y186947D01*
X245668Y186912D01*
X245706Y186873D01*
X245737Y186849D01*
X245737Y177800D01*
X245737Y169759D01*
X244550Y169759D01*
X244059Y169857D01*
X243597Y170048D01*
X242848Y170549D01*
X242770Y170593D01*
X242642Y170681D01*
X242596Y170704D01*
X242553Y170732D01*
X242411Y170798D01*
X242353Y170831D01*
X242288Y170857D01*
X242132Y170935D01*
X242083Y170951D01*
X242036Y170973D01*
X241868Y171024D01*
X241823Y171042D01*
X241774Y171054D01*
X241591Y171115D01*
X241540Y171124D01*
X241491Y171139D01*
X241299Y171169D01*
X241270Y171176D01*
X241237Y171180D01*
X241030Y171217D01*
X240979Y171219D01*
X240929Y171227D01*
X240717Y171231D01*
X240703Y171232D01*
X240686Y171231D01*
X240461Y171240D01*
X240410Y171235D01*
X240359Y171236D01*
X240134Y171208D01*
X240133Y171208D01*
X240132Y171208D01*
X240127Y171207D01*
X239894Y171184D01*
X239844Y171171D01*
X239793Y171165D01*
X239567Y171104D01*
X239341Y171048D01*
X239293Y171029D01*
X239244Y171016D01*
X239029Y170923D01*
X238812Y170836D01*
X238767Y170811D01*
X238720Y170791D01*
X238695Y170775D01*
X227168Y170775D01*
X226275Y171668D01*
X226275Y183932D01*
X227168Y184825D01*
X233830Y184825D01*
X233890Y184829D01*
X233951Y184827D01*
X234174Y184849D01*
X234398Y184865D01*
X234458Y184877D01*
X234518Y184883D01*
X234736Y184937D01*
X234956Y184984D01*
X235012Y185004D01*
X235071Y185019D01*
X235280Y185102D01*
X235491Y185180D01*
X235544Y185208D01*
X235600Y185230D01*
X235795Y185342D01*
X235993Y185448D01*
X236042Y185484D01*
X236094Y185514D01*
X236185Y185589D01*
X236453Y185785D01*
X236614Y185942D01*
X236703Y186015D01*
X237061Y186373D01*
X237101Y186418D01*
X237145Y186459D01*
X237287Y186633D01*
X237435Y186803D01*
X237468Y186854D01*
X237506Y186900D01*
X237623Y187093D01*
X237745Y187281D01*
X237770Y187336D01*
X237801Y187387D01*
X237890Y187594D01*
X237985Y187798D01*
X238002Y187856D01*
X238026Y187911D01*
X238084Y188128D01*
X238150Y188343D01*
X238159Y188403D01*
X238175Y188461D01*
X238186Y188578D01*
X238237Y188906D01*
X238240Y189131D01*
X238251Y189246D01*
X238251Y192112D01*
X238235Y192341D01*
X238225Y192572D01*
X238215Y192626D01*
X238211Y192680D01*
X238163Y192906D01*
X238121Y193132D01*
X238104Y193184D01*
X238092Y193238D01*
X238013Y193454D01*
X237940Y193672D01*
X237915Y193721D01*
X237896Y193773D01*
X237788Y193976D01*
X237685Y194181D01*
X237654Y194227D01*
X237628Y194275D01*
X237492Y194461D01*
X237361Y194650D01*
X237324Y194691D01*
X237291Y194735D01*
X237131Y194900D01*
X236975Y195069D01*
X236932Y195104D01*
X236894Y195143D01*
X236712Y195284D01*
X236534Y195430D01*
X236486Y195458D01*
X236443Y195492D01*
X236243Y195606D01*
X236046Y195725D01*
X235996Y195747D01*
X235948Y195774D01*
X235734Y195859D01*
X235523Y195950D01*
X235470Y195964D01*
X235419Y195984D01*
X235194Y196039D01*
X234973Y196099D01*
X234929Y196103D01*
X234865Y196119D01*
X234298Y196174D01*
X234232Y196171D01*
X234188Y196175D01*
X227168Y196175D01*
X226108Y197235D01*
X226037Y197430D01*
X225964Y197648D01*
X225939Y197697D01*
X225920Y197749D01*
X225812Y197952D01*
X225709Y198157D01*
X225678Y198203D01*
X225652Y198251D01*
X225516Y198437D01*
X225385Y198626D01*
X225348Y198667D01*
X225315Y198711D01*
X225155Y198876D01*
X224999Y199045D01*
X224956Y199080D01*
X224918Y199119D01*
X224736Y199260D01*
X224558Y199406D01*
X224510Y199434D01*
X224467Y199468D01*
X224267Y199582D01*
X224070Y199701D01*
X224020Y199723D01*
X223972Y199750D01*
X223758Y199835D01*
X223547Y199926D01*
X223494Y199940D01*
X223443Y199960D01*
X223218Y200015D01*
X222997Y200075D01*
X222953Y200079D01*
X222889Y200095D01*
X222322Y200150D01*
X222256Y200147D01*
X222212Y200151D01*
X212496Y200151D01*
X212436Y200147D01*
X212375Y200149D01*
X212152Y200127D01*
X211928Y200111D01*
X211868Y200099D01*
X211808Y200093D01*
X211590Y200039D01*
X211370Y199992D01*
X211314Y199972D01*
X211255Y199957D01*
X211046Y199874D01*
X210835Y199796D01*
X210782Y199768D01*
X210726Y199746D01*
X210531Y199634D01*
X210333Y199528D01*
X210284Y199492D01*
X210232Y199462D01*
X210141Y199387D01*
X209873Y199191D01*
X209712Y199034D01*
X209623Y198961D01*
X207439Y196777D01*
X207399Y196732D01*
X207355Y196691D01*
X207213Y196517D01*
X207065Y196347D01*
X207032Y196296D01*
X206994Y196250D01*
X206877Y196057D01*
X206755Y195869D01*
X206730Y195814D01*
X206699Y195763D01*
X206610Y195556D01*
X206515Y195352D01*
X206498Y195294D01*
X206474Y195239D01*
X206416Y195022D01*
X206350Y194807D01*
X206341Y194747D01*
X206325Y194689D01*
X206314Y194572D01*
X206263Y194244D01*
X206260Y194019D01*
X206249Y193904D01*
X206249Y156870D01*
X206257Y156755D01*
X206255Y156640D01*
X206277Y156471D01*
X206289Y156301D01*
X206313Y156189D01*
X206327Y156074D01*
X206372Y155911D01*
X206408Y155744D01*
X206447Y155636D01*
X206478Y155525D01*
X206545Y155369D01*
X206604Y155209D01*
X206658Y155107D01*
X206704Y155002D01*
X206792Y154857D01*
X206872Y154707D01*
X206940Y154614D01*
X207000Y154515D01*
X207108Y154384D01*
X207209Y154247D01*
X207289Y154164D01*
X207362Y154075D01*
X207488Y153960D01*
X207606Y153839D01*
X207697Y153768D01*
X207782Y153690D01*
X207922Y153594D01*
X208057Y153490D01*
X208157Y153433D01*
X208252Y153368D01*
X208404Y153292D01*
X208552Y153208D01*
X208659Y153165D01*
X208762Y153114D01*
X208923Y153060D01*
X209081Y152997D01*
X209194Y152970D01*
X209303Y152934D01*
X209470Y152903D01*
X209635Y152863D01*
X209750Y152852D01*
X209863Y152831D01*
X210033Y152825D01*
X210202Y152808D01*
X210317Y152813D01*
X210433Y152808D01*
X210602Y152825D01*
X210772Y152833D01*
X210885Y152854D01*
X211000Y152865D01*
X211165Y152906D01*
X211332Y152937D01*
X211441Y152973D01*
X211553Y153001D01*
X211711Y153064D01*
X211872Y153118D01*
X211975Y153170D01*
X212082Y153212D01*
X212229Y153297D01*
X212381Y153373D01*
X212476Y153439D01*
X212576Y153496D01*
X212665Y153569D01*
X212850Y153697D01*
X213094Y153922D01*
X213185Y153997D01*
X214173Y154985D01*
X215294Y155449D01*
X222212Y155449D01*
X222441Y155465D01*
X222672Y155475D01*
X222726Y155485D01*
X222780Y155489D01*
X223006Y155537D01*
X223232Y155579D01*
X223284Y155596D01*
X223338Y155608D01*
X223554Y155687D01*
X223772Y155760D01*
X223821Y155785D01*
X223873Y155804D01*
X224076Y155912D01*
X224281Y156015D01*
X224327Y156046D01*
X224375Y156072D01*
X224561Y156208D01*
X224750Y156339D01*
X224791Y156376D01*
X224835Y156409D01*
X225000Y156569D01*
X225169Y156725D01*
X225204Y156768D01*
X225243Y156806D01*
X225384Y156988D01*
X225530Y157166D01*
X225558Y157214D01*
X225592Y157257D01*
X225706Y157457D01*
X225825Y157654D01*
X225847Y157704D01*
X225874Y157752D01*
X225959Y157966D01*
X226050Y158177D01*
X226064Y158230D01*
X226084Y158281D01*
X226103Y158360D01*
X227168Y159425D01*
X238702Y159425D01*
X238829Y159366D01*
X239039Y159262D01*
X239087Y159246D01*
X239134Y159225D01*
X239358Y159157D01*
X239579Y159083D01*
X239630Y159074D01*
X239679Y159059D01*
X239911Y159023D01*
X240140Y158982D01*
X240191Y158980D01*
X240242Y158972D01*
X240472Y158969D01*
X240483Y158968D01*
X240492Y158968D01*
X240710Y158960D01*
X240761Y158965D01*
X240812Y158964D01*
X241026Y158992D01*
X241053Y158993D01*
X241076Y158997D01*
X241276Y159018D01*
X241326Y159030D01*
X241377Y159036D01*
X241570Y159089D01*
X241613Y159097D01*
X241651Y159110D01*
X241830Y159154D01*
X241877Y159173D01*
X241927Y159187D01*
X242094Y159259D01*
X242153Y159279D01*
X242192Y159300D01*
X242358Y159367D01*
X242403Y159392D01*
X242450Y159413D01*
X242649Y159535D01*
X242852Y159651D01*
X242870Y159666D01*
X242922Y159701D01*
X242936Y159709D01*
X242941Y159714D01*
X243597Y160152D01*
X244059Y160343D01*
X244550Y160441D01*
X245737Y160441D01*
X245737Y152400D01*
X245737Y144359D01*
X244550Y144359D01*
X244059Y144457D01*
X243597Y144648D01*
X242848Y145149D01*
X242769Y145193D01*
X242642Y145281D01*
X242592Y145306D01*
X242546Y145336D01*
X242409Y145400D01*
X242353Y145431D01*
X242288Y145457D01*
X242131Y145535D01*
X242079Y145552D01*
X242030Y145575D01*
X241866Y145625D01*
X241823Y145642D01*
X241774Y145654D01*
X241591Y145715D01*
X241537Y145725D01*
X241484Y145741D01*
X241297Y145770D01*
X241270Y145776D01*
X241237Y145780D01*
X241030Y145817D01*
X240975Y145820D01*
X240921Y145828D01*
X240716Y145831D01*
X240703Y145832D01*
X240686Y145831D01*
X240461Y145840D01*
X240406Y145835D01*
X240351Y145836D01*
X240123Y145807D01*
X239894Y145784D01*
X239841Y145771D01*
X239786Y145764D01*
X239564Y145703D01*
X239341Y145648D01*
X239290Y145628D01*
X239237Y145613D01*
X239025Y145522D01*
X238811Y145436D01*
X238764Y145409D01*
X238714Y145387D01*
X238694Y145375D01*
X227168Y145375D01*
X226108Y146435D01*
X226037Y146630D01*
X225964Y146848D01*
X225939Y146897D01*
X225920Y146949D01*
X225812Y147152D01*
X225709Y147357D01*
X225678Y147403D01*
X225652Y147451D01*
X225516Y147637D01*
X225385Y147826D01*
X225348Y147867D01*
X225315Y147911D01*
X225155Y148076D01*
X224999Y148245D01*
X224956Y148280D01*
X224918Y148319D01*
X224736Y148460D01*
X224558Y148606D01*
X224510Y148634D01*
X224467Y148668D01*
X224267Y148782D01*
X224070Y148901D01*
X224020Y148923D01*
X223972Y148950D01*
X223758Y149035D01*
X223547Y149126D01*
X223494Y149140D01*
X223443Y149160D01*
X223218Y149215D01*
X222997Y149275D01*
X222953Y149279D01*
X222889Y149295D01*
X222322Y149350D01*
X222256Y149347D01*
X222212Y149351D01*
X218846Y149351D01*
X218786Y149347D01*
X218725Y149349D01*
X218502Y149327D01*
X218278Y149311D01*
X218218Y149299D01*
X218158Y149293D01*
X217940Y149239D01*
X217720Y149192D01*
X217664Y149172D01*
X217605Y149157D01*
X217397Y149074D01*
X217185Y148996D01*
X217132Y148968D01*
X217076Y148946D01*
X216881Y148834D01*
X216683Y148728D01*
X216634Y148692D01*
X216582Y148662D01*
X216491Y148587D01*
X216223Y148391D01*
X216062Y148234D01*
X215973Y148161D01*
X211010Y143198D01*
X210932Y143109D01*
X210848Y143027D01*
X210746Y142895D01*
X210636Y142768D01*
X210572Y142669D01*
X210500Y142576D01*
X210496Y142569D01*
X200043Y132115D01*
X198922Y131651D01*
X194691Y131651D01*
X194462Y131635D01*
X194231Y131625D01*
X194177Y131615D01*
X194123Y131611D01*
X193897Y131563D01*
X193671Y131521D01*
X193619Y131504D01*
X193565Y131492D01*
X193349Y131413D01*
X193131Y131340D01*
X193082Y131315D01*
X193030Y131296D01*
X192827Y131188D01*
X192622Y131085D01*
X192576Y131054D01*
X192528Y131028D01*
X192342Y130892D01*
X192153Y130761D01*
X192112Y130724D01*
X192068Y130691D01*
X191903Y130531D01*
X191734Y130375D01*
X191699Y130332D01*
X191660Y130294D01*
X191519Y130112D01*
X191373Y129934D01*
X191345Y129886D01*
X191311Y129843D01*
X191197Y129643D01*
X191078Y129446D01*
X191056Y129396D01*
X191029Y129348D01*
X190944Y129134D01*
X190853Y128923D01*
X190839Y128870D01*
X190819Y128819D01*
X190764Y128594D01*
X190704Y128373D01*
X190700Y128329D01*
X190684Y128265D01*
X190674Y128160D01*
X190530Y127435D01*
X190339Y126973D01*
X190060Y126556D01*
X189707Y126203D01*
X189290Y125924D01*
X188828Y125733D01*
X188337Y125635D01*
X184234Y125635D01*
X184060Y125623D01*
X183885Y125620D01*
X183776Y125603D01*
X183666Y125595D01*
X183495Y125559D01*
X183322Y125532D01*
X183216Y125499D01*
X183109Y125476D01*
X182945Y125416D01*
X182777Y125365D01*
X182677Y125318D01*
X182574Y125280D01*
X182420Y125198D01*
X182261Y125124D01*
X182169Y125064D01*
X182071Y125012D01*
X181930Y124908D01*
X181784Y124813D01*
X181700Y124741D01*
X181611Y124675D01*
X181486Y124553D01*
X181354Y124438D01*
X181301Y124373D01*
X181203Y124278D01*
X181176Y124242D01*
X180557Y123624D01*
X180521Y123596D01*
X180399Y123471D01*
X180271Y123352D01*
X180201Y123267D01*
X180124Y123187D01*
X180021Y123047D01*
X179910Y122911D01*
X179853Y122817D01*
X179787Y122727D01*
X179705Y122573D01*
X179615Y122424D01*
X179571Y122322D01*
X179519Y122225D01*
X179459Y122061D01*
X179390Y121900D01*
X179361Y121794D01*
X179323Y121690D01*
X179287Y121519D01*
X179241Y121350D01*
X179233Y121267D01*
X179204Y121132D01*
X179165Y120570D01*
X179165Y120566D01*
X179165Y116463D01*
X179067Y115972D01*
X178876Y115510D01*
X178597Y115093D01*
X178244Y114740D01*
X177827Y114461D01*
X177365Y114270D01*
X176874Y114172D01*
X175825Y114172D01*
X175765Y114168D01*
X175705Y114170D01*
X175481Y114148D01*
X175257Y114132D01*
X175198Y114120D01*
X175138Y114114D01*
X174919Y114060D01*
X174700Y114013D01*
X174643Y113993D01*
X174584Y113978D01*
X174376Y113895D01*
X174165Y113817D01*
X174111Y113789D01*
X174055Y113767D01*
X173860Y113655D01*
X173662Y113549D01*
X173613Y113513D01*
X173561Y113483D01*
X173470Y113408D01*
X173202Y113212D01*
X173041Y113055D01*
X172952Y112982D01*
X171543Y111573D01*
X169997Y110027D01*
X169957Y109981D01*
X169913Y109940D01*
X169770Y109766D01*
X169623Y109597D01*
X169590Y109546D01*
X169552Y109499D01*
X169435Y109307D01*
X169313Y109119D01*
X169288Y109064D01*
X169257Y109012D01*
X169168Y108806D01*
X169073Y108602D01*
X169056Y108544D01*
X169032Y108488D01*
X168974Y108272D01*
X168908Y108056D01*
X168899Y107997D01*
X168883Y107938D01*
X168872Y107821D01*
X168821Y107493D01*
X168818Y107268D01*
X168807Y107154D01*
X168807Y72070D01*
X168815Y71955D01*
X168813Y71840D01*
X168835Y71671D01*
X168847Y71502D01*
X168871Y71389D01*
X168885Y71275D01*
X168930Y71110D01*
X168966Y70944D01*
X169005Y70836D01*
X169036Y70725D01*
X169103Y70569D01*
X169162Y70409D01*
X169216Y70308D01*
X169262Y70202D01*
X169350Y70057D01*
X169430Y69907D01*
X169498Y69814D01*
X169558Y69715D01*
X169666Y69584D01*
X169767Y69447D01*
X169847Y69364D01*
X169920Y69275D01*
X170045Y69161D01*
X170164Y69039D01*
X170255Y68968D01*
X170340Y68890D01*
X170480Y68794D01*
X170615Y68690D01*
X170715Y68633D01*
X170810Y68568D01*
X170962Y68492D01*
X171110Y68408D01*
X171217Y68365D01*
X171320Y68314D01*
X171481Y68260D01*
X171639Y68197D01*
X171752Y68170D01*
X171861Y68134D01*
X172028Y68103D01*
X172193Y68063D01*
X172308Y68052D01*
X172421Y68032D01*
X172591Y68025D01*
X172760Y68008D01*
X172875Y68013D01*
X172991Y68008D01*
X173160Y68025D01*
X173330Y68033D01*
X173443Y68054D01*
X173557Y68065D01*
X173723Y68106D01*
X173890Y68137D01*
X173999Y68173D01*
X174111Y68201D01*
X174269Y68264D01*
X174430Y68318D01*
X174533Y68370D01*
X174640Y68412D01*
X174787Y68497D01*
X174939Y68573D01*
X175034Y68639D01*
X175134Y68696D01*
X175223Y68769D01*
X175408Y68897D01*
X175652Y69122D01*
X175743Y69197D01*
X191691Y85144D01*
X193834Y87288D01*
X195888Y88139D01*
X204312Y88139D01*
X206366Y87288D01*
X207938Y85716D01*
X208789Y83662D01*
X208789Y81438D01*
X207938Y79384D01*
X206366Y77812D01*
X204312Y76961D01*
X200998Y76961D01*
X200938Y76957D01*
X200877Y76959D01*
X200654Y76937D01*
X200430Y76921D01*
X200370Y76909D01*
X200310Y76903D01*
X200092Y76849D01*
X199872Y76802D01*
X199816Y76782D01*
X199757Y76767D01*
X199548Y76684D01*
X199337Y76606D01*
X199284Y76578D01*
X199228Y76556D01*
X199033Y76444D01*
X198835Y76338D01*
X198786Y76302D01*
X198734Y76272D01*
X198643Y76197D01*
X198375Y76001D01*
X198214Y75844D01*
X198125Y75771D01*
X180715Y58361D01*
X180675Y58316D01*
X180631Y58275D01*
X180489Y58101D01*
X180341Y57931D01*
X180308Y57880D01*
X180270Y57834D01*
X180153Y57641D01*
X180031Y57453D01*
X180006Y57398D01*
X179975Y57346D01*
X179886Y57140D01*
X179791Y56936D01*
X179774Y56878D01*
X179750Y56823D01*
X179692Y56606D01*
X179626Y56391D01*
X179617Y56331D01*
X179601Y56273D01*
X179590Y56156D01*
X179539Y55828D01*
X179536Y55603D01*
X179525Y55488D01*
X179525Y37668D01*
X178632Y36775D01*
X151868Y36775D01*
X150975Y37668D01*
X150975Y63932D01*
X151868Y64825D01*
X157630Y64825D01*
X157859Y64841D01*
X158090Y64851D01*
X158144Y64861D01*
X158198Y64865D01*
X158424Y64913D01*
X158650Y64955D01*
X158702Y64972D01*
X158756Y64984D01*
X158972Y65063D01*
X159190Y65136D01*
X159239Y65161D01*
X159291Y65180D01*
X159494Y65288D01*
X159699Y65391D01*
X159745Y65422D01*
X159793Y65448D01*
X159979Y65584D01*
X160168Y65715D01*
X160209Y65752D01*
X160253Y65785D01*
X160418Y65945D01*
X160587Y66101D01*
X160622Y66144D01*
X160661Y66182D01*
X160802Y66364D01*
X160948Y66542D01*
X160976Y66590D01*
X161010Y66633D01*
X161124Y66833D01*
X161243Y67030D01*
X161265Y67080D01*
X161292Y67128D01*
X161377Y67342D01*
X161468Y67553D01*
X161482Y67606D01*
X161502Y67657D01*
X161557Y67882D01*
X161617Y68103D01*
X161621Y68147D01*
X161637Y68211D01*
X161692Y68778D01*
X161689Y68844D01*
X161693Y68888D01*
X161693Y92094D01*
X161689Y92154D01*
X161691Y92214D01*
X161669Y92438D01*
X161653Y92662D01*
X161641Y92721D01*
X161635Y92781D01*
X161581Y93000D01*
X161534Y93219D01*
X161514Y93276D01*
X161499Y93335D01*
X161416Y93543D01*
X161338Y93754D01*
X161310Y93808D01*
X161288Y93864D01*
X161176Y94059D01*
X161070Y94257D01*
X161034Y94305D01*
X161004Y94358D01*
X160929Y94449D01*
X160733Y94717D01*
X160576Y94878D01*
X160503Y94967D01*
X152267Y103203D01*
X152221Y103243D01*
X152180Y103287D01*
X152006Y103429D01*
X151837Y103577D01*
X151786Y103610D01*
X151739Y103648D01*
X151547Y103765D01*
X151358Y103887D01*
X151304Y103912D01*
X151252Y103943D01*
X151046Y104032D01*
X150842Y104127D01*
X150784Y104144D01*
X150728Y104168D01*
X150512Y104226D01*
X150296Y104292D01*
X150237Y104301D01*
X150178Y104317D01*
X150061Y104328D01*
X149733Y104379D01*
X149508Y104382D01*
X149394Y104393D01*
X119931Y104393D01*
X119871Y104389D01*
X119811Y104391D01*
X119587Y104369D01*
X119363Y104353D01*
X119304Y104341D01*
X119244Y104335D01*
X119025Y104281D01*
X118806Y104234D01*
X118749Y104214D01*
X118690Y104199D01*
X118481Y104116D01*
X118270Y104038D01*
X118217Y104010D01*
X118161Y103988D01*
X117966Y103876D01*
X117768Y103770D01*
X117719Y103734D01*
X117667Y103704D01*
X117576Y103629D01*
X117368Y103477D01*
X115356Y102643D01*
X113244Y102643D01*
X111294Y103451D01*
X109801Y104944D01*
X108993Y106894D01*
X108993Y107572D01*
X108985Y107687D01*
X108987Y107802D01*
X108965Y107971D01*
X108953Y108141D01*
X108929Y108253D01*
X108915Y108368D01*
X108870Y108532D01*
X108834Y108698D01*
X108795Y108806D01*
X108764Y108917D01*
X108697Y109073D01*
X108638Y109233D01*
X108584Y109335D01*
X108538Y109440D01*
X108450Y109585D01*
X108370Y109735D01*
X108302Y109828D01*
X108242Y109927D01*
X108134Y110058D01*
X108033Y110195D01*
X107953Y110278D01*
X107880Y110367D01*
X107754Y110482D01*
X107636Y110603D01*
X107545Y110674D01*
X107460Y110752D01*
X107320Y110848D01*
X107185Y110952D01*
X107085Y111009D01*
X106990Y111074D01*
X106838Y111150D01*
X106690Y111234D01*
X106583Y111277D01*
X106480Y111328D01*
X106319Y111382D01*
X106161Y111445D01*
X106048Y111472D01*
X105939Y111508D01*
X105772Y111539D01*
X105607Y111579D01*
X105492Y111590D01*
X105379Y111611D01*
X105209Y111617D01*
X105040Y111634D01*
X104925Y111629D01*
X104809Y111634D01*
X104640Y111617D01*
X104470Y111609D01*
X104357Y111588D01*
X104242Y111577D01*
X104077Y111536D01*
X103910Y111505D01*
X103801Y111469D01*
X103689Y111441D01*
X103531Y111378D01*
X103370Y111324D01*
X103267Y111272D01*
X103160Y111230D01*
X103013Y111145D01*
X102861Y111069D01*
X102766Y111003D01*
X102666Y110946D01*
X102577Y110873D01*
X102392Y110745D01*
X102148Y110520D01*
X102057Y110445D01*
X98406Y106795D01*
X96977Y105365D01*
X95856Y104901D01*
X62894Y104901D01*
X61773Y105365D01*
X56975Y110163D01*
X56888Y110239D01*
X56808Y110321D01*
X56673Y110425D01*
X56545Y110537D01*
X56448Y110600D01*
X56357Y110670D01*
X56210Y110754D01*
X56067Y110847D01*
X55962Y110895D01*
X55862Y110952D01*
X55704Y111015D01*
X55550Y111087D01*
X55440Y111120D01*
X55333Y111163D01*
X55167Y111203D01*
X55005Y111252D01*
X54891Y111270D01*
X54779Y111297D01*
X54609Y111313D01*
X54442Y111339D01*
X54327Y111341D01*
X54212Y111352D01*
X54042Y111345D01*
X53872Y111347D01*
X53758Y111332D01*
X53642Y111327D01*
X53475Y111296D01*
X53307Y111275D01*
X53195Y111244D01*
X53082Y111223D01*
X52921Y111169D01*
X52757Y111124D01*
X52651Y111079D01*
X52542Y111042D01*
X52390Y110966D01*
X52234Y110899D01*
X52136Y110839D01*
X52033Y110787D01*
X51893Y110690D01*
X51748Y110602D01*
X51659Y110529D01*
X51564Y110463D01*
X51439Y110348D01*
X51307Y110240D01*
X51230Y110155D01*
X51145Y110077D01*
X51037Y109945D01*
X50922Y109820D01*
X50857Y109725D01*
X50784Y109636D01*
X50696Y109490D01*
X50600Y109350D01*
X50548Y109247D01*
X50489Y109149D01*
X50422Y108993D01*
X50346Y108840D01*
X50310Y108731D01*
X50264Y108625D01*
X50220Y108461D01*
X50166Y108299D01*
X50145Y108186D01*
X50115Y108075D01*
X50104Y107960D01*
X50064Y107739D01*
X50050Y107407D01*
X50039Y107290D01*
X50039Y92898D01*
X50043Y92838D01*
X50041Y92777D01*
X50063Y92554D01*
X50079Y92330D01*
X50091Y92270D01*
X50097Y92210D01*
X50151Y91992D01*
X50198Y91772D01*
X50218Y91716D01*
X50233Y91657D01*
X50316Y91448D01*
X50394Y91237D01*
X50422Y91184D01*
X50444Y91128D01*
X50556Y90933D01*
X50662Y90735D01*
X50698Y90686D01*
X50728Y90634D01*
X50803Y90543D01*
X50999Y90275D01*
X51156Y90114D01*
X51229Y90025D01*
X67325Y73929D01*
X67370Y73889D01*
X67411Y73845D01*
X67585Y73703D01*
X67755Y73555D01*
X67806Y73522D01*
X67852Y73484D01*
X68045Y73367D01*
X68233Y73245D01*
X68288Y73220D01*
X68340Y73189D01*
X68546Y73100D01*
X68750Y73005D01*
X68808Y72988D01*
X68863Y72964D01*
X69080Y72906D01*
X69295Y72840D01*
X69355Y72831D01*
X69413Y72815D01*
X69530Y72804D01*
X69858Y72753D01*
X70083Y72750D01*
X70198Y72739D01*
X74611Y72739D01*
X74729Y72747D01*
X74847Y72746D01*
X75013Y72767D01*
X75180Y72779D01*
X75295Y72803D01*
X75412Y72818D01*
X75521Y72852D01*
X75737Y72898D01*
X76055Y73014D01*
X76166Y73048D01*
X77679Y73675D01*
X110281Y73675D01*
X111760Y73062D01*
X112892Y71930D01*
X113505Y70451D01*
X113505Y63849D01*
X112892Y62370D01*
X111620Y61099D01*
X111537Y61041D01*
X111292Y60872D01*
X111291Y60871D01*
X111289Y60870D01*
X111099Y60695D01*
X110872Y60487D01*
X110871Y60485D01*
X110870Y60484D01*
X110701Y60277D01*
X110511Y60046D01*
X110510Y60045D01*
X110509Y60043D01*
X110369Y59812D01*
X110215Y59559D01*
X110214Y59558D01*
X110213Y59556D01*
X110099Y59289D01*
X109990Y59036D01*
X109989Y59034D01*
X109989Y59033D01*
X109915Y58761D01*
X109840Y58486D01*
X109840Y58484D01*
X109839Y58483D01*
X109803Y58196D01*
X109769Y57921D01*
X109769Y57919D01*
X109768Y57918D01*
X109773Y57626D01*
X109777Y57351D01*
X109777Y57349D01*
X109777Y57348D01*
X109821Y57069D01*
X109865Y56788D01*
X109865Y56787D01*
X109866Y56785D01*
X109948Y56516D01*
X110031Y56243D01*
X110032Y56242D01*
X110032Y56240D01*
X110151Y55985D01*
X110271Y55726D01*
X110272Y55725D01*
X110273Y55724D01*
X110433Y55478D01*
X110582Y55249D01*
X110583Y55248D01*
X110584Y55246D01*
X110794Y55005D01*
X110956Y54819D01*
X110957Y54818D01*
X110958Y54817D01*
X110965Y54811D01*
X111387Y54446D01*
X111502Y54371D01*
X111568Y54317D01*
X112693Y53565D01*
X113395Y52863D01*
X113947Y52038D01*
X114288Y51213D01*
X93980Y51213D01*
X73672Y51213D01*
X74013Y52038D01*
X74565Y52863D01*
X75267Y53565D01*
X76096Y54120D01*
X76277Y54260D01*
X76462Y54395D01*
X76502Y54434D01*
X76546Y54469D01*
X76706Y54632D01*
X76870Y54792D01*
X76904Y54837D01*
X76944Y54877D01*
X77079Y55062D01*
X77219Y55243D01*
X77246Y55292D01*
X77280Y55337D01*
X77388Y55539D01*
X77501Y55738D01*
X77522Y55790D01*
X77548Y55840D01*
X77626Y56054D01*
X77711Y56267D01*
X77724Y56322D01*
X77744Y56375D01*
X77791Y56598D01*
X77845Y56821D01*
X77851Y56877D01*
X77862Y56932D01*
X77878Y57160D01*
X77900Y57388D01*
X77898Y57445D01*
X77902Y57501D01*
X77886Y57728D01*
X77876Y57958D01*
X77866Y58013D01*
X77862Y58069D01*
X77814Y58292D01*
X77772Y58518D01*
X77754Y58571D01*
X77742Y58626D01*
X77664Y58841D01*
X77591Y59058D01*
X77565Y59108D01*
X77546Y59161D01*
X77438Y59362D01*
X77335Y59567D01*
X77303Y59614D01*
X77277Y59663D01*
X77142Y59848D01*
X77012Y60036D01*
X76973Y60078D01*
X76940Y60123D01*
X76781Y60286D01*
X76625Y60455D01*
X76582Y60491D01*
X76542Y60531D01*
X76362Y60671D01*
X76184Y60816D01*
X76136Y60845D01*
X76092Y60879D01*
X75893Y60993D01*
X75697Y61111D01*
X75645Y61134D01*
X75596Y61161D01*
X75383Y61246D01*
X75173Y61336D01*
X75119Y61350D01*
X75067Y61371D01*
X74844Y61425D01*
X74623Y61485D01*
X74578Y61489D01*
X74513Y61505D01*
X73946Y61560D01*
X73882Y61557D01*
X73839Y61561D01*
X65088Y61561D01*
X63034Y62412D01*
X42460Y82986D01*
X42450Y82995D01*
X42441Y83005D01*
X42236Y83181D01*
X42030Y83360D01*
X42019Y83367D01*
X42008Y83376D01*
X41778Y83523D01*
X41552Y83669D01*
X41540Y83675D01*
X41528Y83683D01*
X41280Y83796D01*
X41035Y83909D01*
X41022Y83913D01*
X41009Y83919D01*
X40750Y83996D01*
X40490Y84074D01*
X40476Y84077D01*
X40463Y84080D01*
X40195Y84120D01*
X39927Y84162D01*
X39913Y84162D01*
X39899Y84164D01*
X39628Y84166D01*
X39357Y84169D01*
X39343Y84168D01*
X39330Y84168D01*
X39061Y84132D01*
X38792Y84097D01*
X38779Y84094D01*
X38765Y84092D01*
X38506Y84019D01*
X38242Y83947D01*
X38229Y83941D01*
X38216Y83938D01*
X37971Y83830D01*
X37719Y83721D01*
X37707Y83714D01*
X37695Y83708D01*
X37465Y83566D01*
X37233Y83424D01*
X37222Y83416D01*
X37210Y83408D01*
X37000Y83233D01*
X36793Y83062D01*
X36783Y83052D01*
X36773Y83043D01*
X36591Y82842D01*
X36408Y82642D01*
X36400Y82631D01*
X36391Y82621D01*
X36361Y82575D01*
X36288Y82469D01*
X36277Y82457D01*
X35392Y81238D01*
X34552Y80398D01*
X33592Y79701D01*
X32535Y79162D01*
X31406Y78795D01*
X30234Y78609D01*
X27639Y78609D01*
X27639Y90214D01*
X27623Y90443D01*
X27613Y90673D01*
X27603Y90727D01*
X27599Y90782D01*
X27551Y91007D01*
X27524Y91157D01*
X27563Y91301D01*
X27567Y91346D01*
X27583Y91409D01*
X27638Y91977D01*
X27635Y92042D01*
X27639Y92086D01*
X27639Y103691D01*
X30234Y103691D01*
X31406Y103505D01*
X32535Y103138D01*
X32953Y102925D01*
X32997Y102907D01*
X33038Y102883D01*
X33259Y102795D01*
X33478Y102702D01*
X33523Y102690D01*
X33567Y102673D01*
X33799Y102617D01*
X34028Y102556D01*
X34075Y102550D01*
X34121Y102539D01*
X34359Y102516D01*
X34594Y102487D01*
X34641Y102488D01*
X34688Y102484D01*
X34927Y102494D01*
X35164Y102499D01*
X35210Y102506D01*
X35258Y102508D01*
X35492Y102552D01*
X35726Y102589D01*
X35771Y102603D01*
X35818Y102612D01*
X36043Y102688D01*
X36270Y102758D01*
X36313Y102778D01*
X36358Y102793D01*
X36571Y102900D01*
X36786Y103001D01*
X36825Y103027D01*
X36867Y103049D01*
X37063Y103184D01*
X37262Y103314D01*
X37297Y103346D01*
X37336Y103372D01*
X37511Y103534D01*
X37690Y103691D01*
X37720Y103727D01*
X37755Y103759D01*
X37906Y103943D01*
X38061Y104123D01*
X38086Y104163D01*
X38116Y104200D01*
X38239Y104402D01*
X38367Y104603D01*
X38387Y104646D01*
X38411Y104687D01*
X38505Y104906D01*
X38604Y105122D01*
X38617Y105167D01*
X38636Y105211D01*
X38698Y105440D01*
X38765Y105668D01*
X38772Y105715D01*
X38785Y105761D01*
X38795Y105870D01*
X38849Y106232D01*
X38851Y106436D01*
X38861Y106545D01*
X38861Y107352D01*
X38857Y107412D01*
X38859Y107473D01*
X38837Y107696D01*
X38821Y107920D01*
X38809Y107980D01*
X38803Y108040D01*
X38749Y108258D01*
X38702Y108478D01*
X38682Y108534D01*
X38667Y108593D01*
X38584Y108802D01*
X38506Y109013D01*
X38478Y109066D01*
X38456Y109122D01*
X38344Y109317D01*
X38238Y109515D01*
X38202Y109564D01*
X38172Y109616D01*
X38097Y109707D01*
X37901Y109975D01*
X37744Y110136D01*
X37671Y110225D01*
X35611Y112285D01*
X35566Y112325D01*
X35525Y112369D01*
X35351Y112511D01*
X35181Y112659D01*
X35130Y112692D01*
X35084Y112730D01*
X34892Y112846D01*
X34703Y112969D01*
X34648Y112994D01*
X34596Y113025D01*
X34390Y113114D01*
X34186Y113209D01*
X34128Y113226D01*
X34073Y113250D01*
X33856Y113308D01*
X33641Y113374D01*
X33581Y113383D01*
X33523Y113399D01*
X33406Y113410D01*
X33078Y113461D01*
X32853Y113464D01*
X32738Y113475D01*
X15654Y113475D01*
X15562Y113503D01*
X15455Y113546D01*
X15289Y113586D01*
X15127Y113635D01*
X15013Y113653D01*
X14901Y113680D01*
X14731Y113696D01*
X14564Y113722D01*
X14449Y113724D01*
X14334Y113735D01*
X14164Y113728D01*
X13994Y113730D01*
X13880Y113716D01*
X13764Y113711D01*
X13597Y113680D01*
X13429Y113658D01*
X13318Y113628D01*
X13204Y113607D01*
X13043Y113553D01*
X12879Y113508D01*
X12773Y113462D01*
X12664Y113425D01*
X12512Y113349D01*
X12356Y113282D01*
X12258Y113222D01*
X12155Y113170D01*
X12015Y113074D01*
X11870Y112985D01*
X11781Y112912D01*
X11686Y112846D01*
X11561Y112731D01*
X11430Y112623D01*
X11352Y112538D01*
X11267Y112460D01*
X11159Y112329D01*
X11044Y112203D01*
X10979Y112108D01*
X10906Y112019D01*
X10818Y111874D01*
X10722Y111734D01*
X10670Y111630D01*
X10611Y111532D01*
X10544Y111376D01*
X10468Y111224D01*
X10432Y111114D01*
X10386Y111008D01*
X10342Y110844D01*
X10288Y110683D01*
X10267Y110569D01*
X10237Y110458D01*
X10226Y110344D01*
X10186Y110122D01*
X10172Y109790D01*
X10161Y109673D01*
X10161Y107674D01*
X10177Y107438D01*
X10187Y107219D01*
X10193Y107188D01*
X10195Y107147D01*
X10199Y107127D01*
X10201Y107106D01*
X10255Y106852D01*
X10291Y106659D01*
X10299Y106633D01*
X10308Y106589D01*
X10315Y106569D01*
X10320Y106549D01*
X10410Y106301D01*
X10420Y106274D01*
X10472Y106119D01*
X10482Y106099D01*
X10499Y106052D01*
X10508Y106033D01*
X10516Y106014D01*
X10641Y105780D01*
X10669Y105726D01*
X10727Y105609D01*
X10737Y105595D01*
X10762Y105547D01*
X10774Y105530D01*
X10784Y105511D01*
X10940Y105298D01*
X10995Y105222D01*
X11051Y105140D01*
X11060Y105131D01*
X11094Y105083D01*
X11108Y105068D01*
X11121Y105051D01*
X11305Y104862D01*
X11389Y104774D01*
X11437Y104722D01*
X11445Y104716D01*
X11487Y104671D01*
X11504Y104658D01*
X11518Y104643D01*
X11727Y104481D01*
X11842Y104391D01*
X11878Y104361D01*
X11884Y104358D01*
X11934Y104318D01*
X11952Y104307D01*
X11969Y104294D01*
X12199Y104163D01*
X12344Y104078D01*
X12366Y104065D01*
X12369Y104064D01*
X12426Y104030D01*
X12446Y104023D01*
X12464Y104012D01*
X12710Y103914D01*
X12882Y103844D01*
X12889Y103841D01*
X12890Y103841D01*
X12954Y103815D01*
X12974Y103810D01*
X12993Y103802D01*
X13251Y103739D01*
X13506Y103675D01*
X13527Y103673D01*
X13547Y103668D01*
X13811Y103642D01*
X14073Y103614D01*
X14090Y103615D01*
X14114Y103613D01*
X14211Y103617D01*
X14224Y103615D01*
X14252Y103615D01*
X14363Y103623D01*
X14684Y103637D01*
X14759Y103651D01*
X14820Y103655D01*
X14842Y103660D01*
X14860Y103661D01*
X15046Y103691D01*
X17641Y103691D01*
X17641Y92086D01*
X17657Y91857D01*
X17667Y91627D01*
X17677Y91573D01*
X17681Y91518D01*
X17729Y91293D01*
X17756Y91143D01*
X17717Y90999D01*
X17713Y90954D01*
X17697Y90891D01*
X17642Y90323D01*
X17645Y90258D01*
X17641Y90214D01*
X17641Y78609D01*
X15046Y78609D01*
X14860Y78639D01*
X14598Y78662D01*
X14334Y78687D01*
X14313Y78687D01*
X14292Y78688D01*
X14029Y78674D01*
X13764Y78663D01*
X13744Y78659D01*
X13723Y78658D01*
X13464Y78607D01*
X13204Y78559D01*
X13184Y78552D01*
X13164Y78548D01*
X12915Y78462D01*
X12664Y78378D01*
X12645Y78368D01*
X12626Y78361D01*
X12391Y78241D01*
X12155Y78122D01*
X12137Y78111D01*
X12119Y78101D01*
X11903Y77949D01*
X11686Y77799D01*
X11670Y77784D01*
X11653Y77772D01*
X11462Y77592D01*
X11267Y77412D01*
X11254Y77396D01*
X11238Y77382D01*
X11074Y77177D01*
X10906Y76971D01*
X10895Y76953D01*
X10882Y76937D01*
X10748Y76710D01*
X10611Y76484D01*
X10602Y76465D01*
X10592Y76447D01*
X10490Y76202D01*
X10386Y75960D01*
X10381Y75940D01*
X10373Y75921D01*
X10306Y75666D01*
X10237Y75410D01*
X10236Y75393D01*
X10229Y75369D01*
X10165Y74803D01*
X10167Y74695D01*
X10161Y74626D01*
X10161Y39674D01*
X10179Y39411D01*
X10195Y39147D01*
X10199Y39127D01*
X10201Y39106D01*
X10256Y38849D01*
X10308Y38589D01*
X10315Y38569D01*
X10320Y38549D01*
X10410Y38301D01*
X10499Y38052D01*
X10508Y38033D01*
X10516Y38014D01*
X10641Y37780D01*
X10762Y37547D01*
X10774Y37530D01*
X10784Y37511D01*
X10940Y37298D01*
X11094Y37083D01*
X11108Y37068D01*
X11121Y37051D01*
X11305Y36862D01*
X11487Y36671D01*
X11504Y36658D01*
X11518Y36643D01*
X11727Y36481D01*
X11934Y36318D01*
X11952Y36307D01*
X11969Y36294D01*
X12199Y36163D01*
X12426Y36030D01*
X12446Y36023D01*
X12464Y36012D01*
X12710Y35914D01*
X12954Y35815D01*
X12974Y35810D01*
X12993Y35802D01*
X13251Y35739D01*
X13506Y35675D01*
X13527Y35673D01*
X13547Y35668D01*
X13811Y35642D01*
X14073Y35614D01*
X14090Y35615D01*
X14114Y35613D01*
X14684Y35637D01*
X14790Y35657D01*
X14860Y35661D01*
X15046Y35691D01*
X17641Y35691D01*
X17641Y24086D01*
X17657Y23857D01*
X17667Y23627D01*
X17677Y23573D01*
X17681Y23518D01*
X17729Y23293D01*
X17771Y23066D01*
X17788Y23014D01*
X17800Y22961D01*
X17879Y22744D01*
X17952Y22526D01*
X17977Y22477D01*
X17996Y22426D01*
X18104Y22222D01*
X18207Y22017D01*
X18238Y21972D01*
X18264Y21923D01*
X18400Y21738D01*
X18531Y21548D01*
X18568Y21507D01*
X18601Y21463D01*
X18761Y21298D01*
X18917Y21129D01*
X18960Y21094D01*
X18998Y21055D01*
X19180Y20914D01*
X19358Y20768D01*
X19405Y20740D01*
X19449Y20706D01*
X19649Y20592D01*
X19846Y20473D01*
X19896Y20451D01*
X19934Y20430D01*
X19976Y20350D01*
X20079Y20145D01*
X20111Y20099D01*
X20137Y20051D01*
X20272Y19865D01*
X20403Y19676D01*
X20441Y19635D01*
X20473Y19591D01*
X20633Y19426D01*
X20790Y19257D01*
X20832Y19222D01*
X20870Y19183D01*
X21052Y19042D01*
X21231Y18896D01*
X21278Y18868D01*
X21321Y18834D01*
X21521Y18720D01*
X21718Y18601D01*
X21768Y18579D01*
X21816Y18552D01*
X22031Y18467D01*
X22242Y18376D01*
X22294Y18362D01*
X22346Y18342D01*
X22570Y18287D01*
X22791Y18227D01*
X22836Y18223D01*
X22899Y18207D01*
X23467Y18152D01*
X23532Y18155D01*
X23576Y18151D01*
X37181Y18151D01*
X37181Y17556D01*
X36995Y16384D01*
X36701Y15480D01*
X36698Y15467D01*
X36693Y15455D01*
X36629Y15189D01*
X36563Y14927D01*
X36562Y14914D01*
X36559Y14901D01*
X36532Y14628D01*
X36505Y14360D01*
X36505Y14347D01*
X36504Y14334D01*
X36515Y14062D01*
X36525Y13791D01*
X36528Y13778D01*
X36528Y13764D01*
X36578Y13499D01*
X36626Y13230D01*
X36630Y13217D01*
X36632Y13204D01*
X36718Y12947D01*
X36804Y12688D01*
X36809Y12677D01*
X36814Y12664D01*
X36936Y12420D01*
X37055Y12177D01*
X37063Y12166D01*
X37069Y12155D01*
X37223Y11931D01*
X37376Y11706D01*
X37385Y11697D01*
X37393Y11686D01*
X37578Y11485D01*
X37760Y11285D01*
X37770Y11277D01*
X37779Y11267D01*
X37991Y11094D01*
X38198Y10921D01*
X38210Y10915D01*
X38220Y10906D01*
X38453Y10765D01*
X38684Y10623D01*
X38696Y10617D01*
X38707Y10611D01*
X38956Y10504D01*
X39206Y10395D01*
X39219Y10391D01*
X39231Y10386D01*
X39493Y10315D01*
X39755Y10242D01*
X39768Y10241D01*
X39781Y10237D01*
X39833Y10232D01*
X40320Y10168D01*
X40474Y10170D01*
X40565Y10161D01*
X633276Y10161D01*
X633505Y10177D01*
G37*
%LPC*%
G36*
X490991Y21335D02*
X490991Y21335D01*
X489497Y21954D01*
X487783Y23669D01*
X482366Y29085D01*
X482321Y29125D01*
X482280Y29169D01*
X482106Y29311D01*
X481936Y29459D01*
X481886Y29492D01*
X481839Y29530D01*
X481647Y29647D01*
X481458Y29769D01*
X481403Y29794D01*
X481352Y29825D01*
X481145Y29914D01*
X480941Y30009D01*
X480883Y30026D01*
X480828Y30050D01*
X480611Y30108D01*
X480396Y30174D01*
X480336Y30183D01*
X480278Y30199D01*
X480161Y30210D01*
X479833Y30261D01*
X479608Y30264D01*
X479493Y30275D01*
X457018Y30275D01*
X456125Y31168D01*
X456125Y43688D01*
X456109Y43917D01*
X456099Y44148D01*
X456089Y44202D01*
X456085Y44256D01*
X456037Y44482D01*
X455995Y44708D01*
X455978Y44760D01*
X455966Y44814D01*
X455887Y45030D01*
X455814Y45248D01*
X455789Y45297D01*
X455770Y45349D01*
X455662Y45552D01*
X455559Y45757D01*
X455528Y45803D01*
X455502Y45851D01*
X455366Y46037D01*
X455235Y46226D01*
X455198Y46267D01*
X455165Y46311D01*
X455005Y46476D01*
X454849Y46645D01*
X454806Y46680D01*
X454768Y46719D01*
X454586Y46860D01*
X454408Y47006D01*
X454360Y47034D01*
X454317Y47068D01*
X454117Y47182D01*
X453920Y47301D01*
X453870Y47323D01*
X453822Y47350D01*
X453608Y47435D01*
X453397Y47526D01*
X453344Y47540D01*
X453293Y47560D01*
X453068Y47615D01*
X452847Y47675D01*
X452803Y47679D01*
X452739Y47695D01*
X452172Y47750D01*
X452106Y47747D01*
X452062Y47751D01*
X424844Y47751D01*
X423723Y48215D01*
X416457Y55481D01*
X416404Y55589D01*
X416371Y55636D01*
X416344Y55687D01*
X416210Y55870D01*
X416080Y56058D01*
X416041Y56100D01*
X416007Y56147D01*
X415849Y56310D01*
X415695Y56477D01*
X415650Y56514D01*
X415610Y56555D01*
X415430Y56694D01*
X415254Y56839D01*
X415205Y56869D01*
X415159Y56904D01*
X414962Y57017D01*
X414767Y57135D01*
X414715Y57158D01*
X414664Y57186D01*
X414452Y57270D01*
X414244Y57360D01*
X414188Y57375D01*
X414135Y57396D01*
X413914Y57450D01*
X413694Y57510D01*
X413637Y57517D01*
X413581Y57531D01*
X413354Y57553D01*
X413129Y57581D01*
X413071Y57580D01*
X413014Y57586D01*
X412786Y57576D01*
X412559Y57573D01*
X412502Y57564D01*
X412444Y57561D01*
X412221Y57520D01*
X411996Y57485D01*
X411941Y57468D01*
X411884Y57457D01*
X411669Y57385D01*
X411451Y57319D01*
X411399Y57294D01*
X411344Y57276D01*
X411141Y57174D01*
X410935Y57078D01*
X410890Y57049D01*
X395736Y57049D01*
X395507Y57033D01*
X395277Y57023D01*
X395223Y57013D01*
X395168Y57009D01*
X394943Y56961D01*
X394716Y56919D01*
X394664Y56902D01*
X394611Y56890D01*
X394394Y56811D01*
X394176Y56738D01*
X394127Y56713D01*
X394076Y56694D01*
X393872Y56586D01*
X393667Y56483D01*
X393622Y56452D01*
X393573Y56426D01*
X393547Y56407D01*
X393419Y56480D01*
X393222Y56599D01*
X393172Y56621D01*
X393124Y56648D01*
X392909Y56733D01*
X392698Y56824D01*
X392646Y56838D01*
X392594Y56858D01*
X392370Y56913D01*
X392149Y56973D01*
X392104Y56977D01*
X392041Y56993D01*
X391473Y57048D01*
X391408Y57045D01*
X391364Y57049D01*
X378259Y57049D01*
X378259Y63550D01*
X378357Y64041D01*
X378548Y64503D01*
X378827Y64920D01*
X379180Y65273D01*
X379651Y65588D01*
X379765Y65637D01*
X379861Y65696D01*
X379961Y65746D01*
X380103Y65844D01*
X380251Y65934D01*
X380338Y66005D01*
X380430Y66069D01*
X380558Y66186D01*
X380691Y66296D01*
X380767Y66378D01*
X380850Y66455D01*
X380960Y66588D01*
X381076Y66716D01*
X381140Y66808D01*
X381211Y66895D01*
X381301Y67043D01*
X381399Y67185D01*
X381449Y67286D01*
X381507Y67382D01*
X381576Y67541D01*
X381653Y67696D01*
X381688Y67802D01*
X381733Y67905D01*
X381778Y68072D01*
X381833Y68236D01*
X381853Y68347D01*
X381882Y68455D01*
X381904Y68627D01*
X381935Y68797D01*
X381940Y68909D01*
X381954Y69020D01*
X381951Y69193D01*
X381958Y69366D01*
X381947Y69478D01*
X381945Y69590D01*
X381919Y69761D01*
X381901Y69933D01*
X381875Y70042D01*
X381857Y70153D01*
X381807Y70318D01*
X381766Y70486D01*
X381724Y70590D01*
X381691Y70698D01*
X381618Y70855D01*
X381554Y71015D01*
X381498Y71113D01*
X381451Y71215D01*
X381357Y71360D01*
X381271Y71510D01*
X381216Y71576D01*
X381140Y71692D01*
X380778Y72109D01*
X380770Y72119D01*
X379845Y73044D01*
X378415Y74473D01*
X377951Y75594D01*
X377951Y102712D01*
X377935Y102941D01*
X377925Y103172D01*
X377915Y103226D01*
X377911Y103280D01*
X377863Y103506D01*
X377821Y103732D01*
X377804Y103784D01*
X377792Y103838D01*
X377713Y104054D01*
X377640Y104272D01*
X377615Y104321D01*
X377596Y104373D01*
X377488Y104576D01*
X377385Y104781D01*
X377354Y104827D01*
X377328Y104875D01*
X377192Y105061D01*
X377061Y105250D01*
X377024Y105291D01*
X376991Y105335D01*
X376831Y105500D01*
X376675Y105669D01*
X376632Y105704D01*
X376594Y105743D01*
X376412Y105884D01*
X376234Y106030D01*
X376186Y106058D01*
X376143Y106092D01*
X375943Y106206D01*
X375746Y106325D01*
X375696Y106347D01*
X375648Y106374D01*
X375434Y106459D01*
X375223Y106550D01*
X375170Y106564D01*
X375119Y106584D01*
X374894Y106639D01*
X374673Y106699D01*
X374629Y106703D01*
X374565Y106719D01*
X373998Y106774D01*
X373932Y106771D01*
X373888Y106775D01*
X369078Y106775D01*
X368185Y107668D01*
X368185Y120932D01*
X369078Y121825D01*
X388342Y121825D01*
X389235Y120932D01*
X389235Y107668D01*
X388342Y106775D01*
X388112Y106775D01*
X387883Y106759D01*
X387652Y106749D01*
X387598Y106739D01*
X387544Y106735D01*
X387318Y106687D01*
X387092Y106645D01*
X387040Y106628D01*
X386986Y106616D01*
X386770Y106537D01*
X386552Y106464D01*
X386503Y106439D01*
X386451Y106420D01*
X386248Y106312D01*
X386043Y106209D01*
X385997Y106178D01*
X385949Y106152D01*
X385763Y106016D01*
X385574Y105885D01*
X385533Y105848D01*
X385489Y105815D01*
X385324Y105655D01*
X385155Y105499D01*
X385120Y105456D01*
X385081Y105418D01*
X384940Y105236D01*
X384794Y105058D01*
X384766Y105010D01*
X384732Y104967D01*
X384618Y104767D01*
X384499Y104570D01*
X384477Y104520D01*
X384450Y104472D01*
X384365Y104258D01*
X384274Y104047D01*
X384260Y103994D01*
X384240Y103943D01*
X384185Y103718D01*
X384125Y103497D01*
X384121Y103453D01*
X384105Y103389D01*
X384050Y102822D01*
X384053Y102756D01*
X384049Y102712D01*
X384049Y79146D01*
X384053Y79086D01*
X384051Y79025D01*
X384073Y78802D01*
X384089Y78577D01*
X384101Y78518D01*
X384107Y78458D01*
X384161Y78240D01*
X384208Y78020D01*
X384228Y77964D01*
X384243Y77905D01*
X384326Y77696D01*
X384404Y77485D01*
X384432Y77432D01*
X384455Y77376D01*
X384566Y77181D01*
X384672Y76983D01*
X384708Y76934D01*
X384738Y76882D01*
X384813Y76791D01*
X385009Y76523D01*
X385166Y76362D01*
X385239Y76273D01*
X387423Y74089D01*
X387468Y74049D01*
X387509Y74005D01*
X387683Y73863D01*
X387853Y73715D01*
X387904Y73682D01*
X387950Y73644D01*
X388142Y73528D01*
X388331Y73405D01*
X388386Y73380D01*
X388437Y73349D01*
X388644Y73260D01*
X388848Y73165D01*
X388906Y73148D01*
X388961Y73124D01*
X389178Y73065D01*
X389393Y73000D01*
X389453Y72991D01*
X389511Y72975D01*
X389628Y72964D01*
X389956Y72913D01*
X390181Y72910D01*
X390296Y72899D01*
X413356Y72899D01*
X414477Y72435D01*
X421685Y65227D01*
X422149Y64106D01*
X422149Y60096D01*
X422153Y60036D01*
X422151Y59975D01*
X422173Y59751D01*
X422189Y59528D01*
X422201Y59468D01*
X422207Y59408D01*
X422261Y59190D01*
X422308Y58970D01*
X422328Y58914D01*
X422343Y58855D01*
X422426Y58646D01*
X422504Y58435D01*
X422532Y58382D01*
X422554Y58326D01*
X422666Y58131D01*
X422772Y57933D01*
X422808Y57884D01*
X422838Y57832D01*
X422913Y57741D01*
X423109Y57473D01*
X423266Y57312D01*
X423339Y57223D01*
X425523Y55039D01*
X425568Y54999D01*
X425609Y54955D01*
X425783Y54813D01*
X425953Y54665D01*
X426004Y54632D01*
X426050Y54594D01*
X426243Y54477D01*
X426431Y54355D01*
X426486Y54330D01*
X426537Y54299D01*
X426744Y54210D01*
X426948Y54115D01*
X427006Y54098D01*
X427061Y54074D01*
X427278Y54016D01*
X427493Y53950D01*
X427553Y53941D01*
X427611Y53925D01*
X427728Y53914D01*
X428056Y53863D01*
X428281Y53860D01*
X428396Y53849D01*
X452062Y53849D01*
X452291Y53865D01*
X452522Y53875D01*
X452576Y53885D01*
X452630Y53889D01*
X452856Y53937D01*
X453082Y53979D01*
X453134Y53996D01*
X453188Y54008D01*
X453404Y54087D01*
X453622Y54160D01*
X453671Y54185D01*
X453723Y54204D01*
X453926Y54312D01*
X454131Y54415D01*
X454177Y54446D01*
X454225Y54472D01*
X454411Y54608D01*
X454600Y54739D01*
X454641Y54776D01*
X454685Y54809D01*
X454850Y54969D01*
X455019Y55125D01*
X455054Y55168D01*
X455093Y55206D01*
X455234Y55388D01*
X455380Y55566D01*
X455408Y55614D01*
X455442Y55657D01*
X455556Y55857D01*
X455675Y56054D01*
X455697Y56104D01*
X455724Y56152D01*
X455809Y56366D01*
X455900Y56577D01*
X455914Y56630D01*
X455934Y56681D01*
X455989Y56906D01*
X456049Y57127D01*
X456053Y57171D01*
X456069Y57235D01*
X456124Y57802D01*
X456121Y57868D01*
X456125Y57912D01*
X456125Y71047D01*
X456168Y71207D01*
X456234Y71422D01*
X456243Y71482D01*
X456259Y71540D01*
X456270Y71657D01*
X456321Y71985D01*
X456324Y72210D01*
X456335Y72325D01*
X456335Y95033D01*
X456331Y95093D01*
X456333Y95154D01*
X456311Y95377D01*
X456295Y95602D01*
X456283Y95661D01*
X456277Y95721D01*
X456223Y95939D01*
X456176Y96159D01*
X456156Y96215D01*
X456141Y96274D01*
X456058Y96483D01*
X455980Y96694D01*
X455952Y96747D01*
X455930Y96803D01*
X455818Y96998D01*
X455712Y97196D01*
X455676Y97245D01*
X455646Y97297D01*
X455571Y97388D01*
X455375Y97656D01*
X455218Y97817D01*
X455145Y97906D01*
X449904Y103147D01*
X449285Y104641D01*
X449285Y112225D01*
X449281Y112286D01*
X449283Y112346D01*
X449261Y112569D01*
X449245Y112794D01*
X449233Y112853D01*
X449227Y112913D01*
X449173Y113131D01*
X449126Y113351D01*
X449106Y113408D01*
X449091Y113466D01*
X449008Y113675D01*
X448930Y113886D01*
X448902Y113939D01*
X448880Y113995D01*
X448768Y114190D01*
X448662Y114388D01*
X448626Y114437D01*
X448596Y114490D01*
X448521Y114581D01*
X448325Y114848D01*
X448168Y115009D01*
X448095Y115099D01*
X448075Y115118D01*
X448075Y116130D01*
X448059Y116359D01*
X448049Y116590D01*
X448039Y116644D01*
X448035Y116698D01*
X447987Y116923D01*
X447945Y117150D01*
X447928Y117202D01*
X447916Y117256D01*
X447837Y117472D01*
X447764Y117690D01*
X447739Y117739D01*
X447720Y117791D01*
X447612Y117994D01*
X447509Y118199D01*
X447478Y118245D01*
X447452Y118293D01*
X447316Y118479D01*
X447185Y118668D01*
X447148Y118709D01*
X447115Y118753D01*
X446955Y118918D01*
X446799Y119087D01*
X446756Y119122D01*
X446718Y119161D01*
X446536Y119302D01*
X446358Y119448D01*
X446310Y119476D01*
X446267Y119510D01*
X446067Y119624D01*
X445870Y119743D01*
X445820Y119765D01*
X445772Y119792D01*
X445558Y119877D01*
X445347Y119968D01*
X445294Y119982D01*
X445243Y120002D01*
X445018Y120057D01*
X444797Y120117D01*
X444753Y120121D01*
X444689Y120137D01*
X444122Y120192D01*
X444056Y120189D01*
X444012Y120193D01*
X423278Y120193D01*
X423049Y120177D01*
X422818Y120167D01*
X422764Y120157D01*
X422710Y120153D01*
X422484Y120105D01*
X422258Y120063D01*
X422206Y120046D01*
X422152Y120034D01*
X421936Y119955D01*
X421718Y119882D01*
X421669Y119857D01*
X421617Y119838D01*
X421414Y119730D01*
X421209Y119627D01*
X421163Y119596D01*
X421115Y119570D01*
X420929Y119434D01*
X420740Y119303D01*
X420699Y119266D01*
X420655Y119233D01*
X420490Y119073D01*
X420321Y118917D01*
X420286Y118874D01*
X420247Y118836D01*
X420106Y118654D01*
X419960Y118476D01*
X419932Y118428D01*
X419898Y118385D01*
X419784Y118185D01*
X419665Y117988D01*
X419643Y117938D01*
X419616Y117890D01*
X419531Y117676D01*
X419440Y117465D01*
X419426Y117412D01*
X419406Y117361D01*
X419351Y117136D01*
X419291Y116915D01*
X419287Y116871D01*
X419271Y116807D01*
X419216Y116240D01*
X419219Y116174D01*
X419215Y116130D01*
X419215Y107668D01*
X418322Y106775D01*
X399058Y106775D01*
X398165Y107668D01*
X398165Y120932D01*
X399058Y121825D01*
X409502Y121825D01*
X409562Y121829D01*
X409622Y121827D01*
X409846Y121849D01*
X410070Y121865D01*
X410129Y121877D01*
X410189Y121883D01*
X410408Y121937D01*
X410627Y121984D01*
X410684Y122004D01*
X410743Y122019D01*
X410951Y122102D01*
X411162Y122180D01*
X411216Y122208D01*
X411272Y122230D01*
X411467Y122342D01*
X411665Y122448D01*
X411713Y122484D01*
X411766Y122514D01*
X411857Y122589D01*
X412125Y122785D01*
X412286Y122942D01*
X412375Y123015D01*
X416125Y126765D01*
X417433Y127307D01*
X428644Y127307D01*
X428704Y127311D01*
X428764Y127309D01*
X428988Y127331D01*
X429212Y127347D01*
X429271Y127359D01*
X429331Y127365D01*
X429550Y127419D01*
X429769Y127466D01*
X429826Y127486D01*
X429885Y127501D01*
X430093Y127584D01*
X430304Y127662D01*
X430358Y127690D01*
X430414Y127712D01*
X430609Y127824D01*
X430807Y127930D01*
X430855Y127966D01*
X430908Y127996D01*
X430999Y128071D01*
X431267Y128267D01*
X431428Y128424D01*
X431517Y128497D01*
X436285Y133265D01*
X437593Y133807D01*
X444012Y133807D01*
X444241Y133823D01*
X444472Y133833D01*
X444526Y133843D01*
X444580Y133847D01*
X444806Y133895D01*
X445032Y133937D01*
X445084Y133954D01*
X445138Y133966D01*
X445354Y134045D01*
X445572Y134118D01*
X445621Y134143D01*
X445673Y134162D01*
X445876Y134270D01*
X446081Y134373D01*
X446127Y134404D01*
X446175Y134430D01*
X446361Y134566D01*
X446550Y134697D01*
X446591Y134734D01*
X446635Y134767D01*
X446800Y134927D01*
X446969Y135083D01*
X447004Y135126D01*
X447043Y135164D01*
X447184Y135346D01*
X447330Y135524D01*
X447358Y135572D01*
X447392Y135615D01*
X447506Y135815D01*
X447625Y136012D01*
X447647Y136062D01*
X447674Y136110D01*
X447759Y136324D01*
X447850Y136535D01*
X447864Y136588D01*
X447884Y136639D01*
X447939Y136864D01*
X447999Y137085D01*
X448003Y137129D01*
X448019Y137193D01*
X448074Y137760D01*
X448071Y137826D01*
X448075Y137870D01*
X448075Y138882D01*
X448968Y139775D01*
X451877Y139775D01*
X451995Y139783D01*
X452113Y139782D01*
X452246Y139799D01*
X512903Y139799D01*
X513207Y139786D01*
X513323Y139775D01*
X516232Y139775D01*
X517125Y138882D01*
X517125Y130970D01*
X517129Y130910D01*
X517127Y130849D01*
X517149Y130626D01*
X517165Y130401D01*
X517177Y130342D01*
X517183Y130282D01*
X517237Y130064D01*
X517284Y129844D01*
X517304Y129788D01*
X517319Y129729D01*
X517402Y129520D01*
X517480Y129309D01*
X517508Y129256D01*
X517530Y129200D01*
X517642Y129005D01*
X517748Y128807D01*
X517784Y128758D01*
X517814Y128706D01*
X517889Y128615D01*
X518085Y128347D01*
X518242Y128186D01*
X518315Y128097D01*
X522399Y124013D01*
X522486Y123937D01*
X522566Y123855D01*
X522701Y123751D01*
X522829Y123639D01*
X522926Y123576D01*
X523017Y123506D01*
X523165Y123422D01*
X523307Y123329D01*
X523412Y123281D01*
X523512Y123224D01*
X523670Y123161D01*
X523824Y123089D01*
X523934Y123056D01*
X524041Y123013D01*
X524207Y122973D01*
X524369Y122924D01*
X524483Y122906D01*
X524595Y122879D01*
X524765Y122863D01*
X524932Y122837D01*
X525047Y122835D01*
X525162Y122824D01*
X525332Y122831D01*
X525502Y122829D01*
X525616Y122844D01*
X525732Y122849D01*
X525899Y122880D01*
X526067Y122901D01*
X526179Y122932D01*
X526292Y122953D01*
X526453Y123007D01*
X526617Y123052D01*
X526723Y123097D01*
X526832Y123134D01*
X526984Y123210D01*
X527140Y123277D01*
X527238Y123337D01*
X527341Y123389D01*
X527481Y123486D01*
X527626Y123574D01*
X527715Y123647D01*
X527810Y123713D01*
X527935Y123828D01*
X528067Y123936D01*
X528144Y124021D01*
X528229Y124099D01*
X528337Y124231D01*
X528452Y124356D01*
X528517Y124451D01*
X528590Y124540D01*
X528678Y124686D01*
X528774Y124826D01*
X528826Y124929D01*
X528885Y125027D01*
X528952Y125184D01*
X529028Y125336D01*
X529064Y125445D01*
X529110Y125551D01*
X529154Y125715D01*
X529208Y125877D01*
X529229Y125990D01*
X529259Y126101D01*
X529270Y126216D01*
X529310Y126437D01*
X529324Y126769D01*
X529335Y126886D01*
X529335Y141188D01*
X529327Y141305D01*
X529328Y141423D01*
X529307Y141589D01*
X529295Y141756D01*
X529271Y141872D01*
X529256Y141988D01*
X529222Y142098D01*
X529176Y142313D01*
X529060Y142631D01*
X529026Y142743D01*
X528093Y144994D01*
X528093Y147106D01*
X528901Y149056D01*
X530394Y150549D01*
X530706Y150678D01*
X530757Y150704D01*
X530812Y150724D01*
X531013Y150831D01*
X531216Y150932D01*
X531263Y150965D01*
X531314Y150992D01*
X531497Y151126D01*
X531685Y151256D01*
X531728Y151295D01*
X531774Y151329D01*
X531937Y151487D01*
X532104Y151641D01*
X532141Y151686D01*
X532182Y151726D01*
X532322Y151906D01*
X532466Y152082D01*
X532496Y152131D01*
X532531Y152177D01*
X532644Y152374D01*
X532762Y152569D01*
X532785Y152622D01*
X532813Y152672D01*
X532897Y152884D01*
X532987Y153092D01*
X533002Y153148D01*
X533024Y153201D01*
X533077Y153423D01*
X533137Y153642D01*
X533144Y153699D01*
X533158Y153755D01*
X533180Y153982D01*
X533208Y154207D01*
X533207Y154265D01*
X533213Y154322D01*
X533203Y154550D01*
X533200Y154777D01*
X533191Y154834D01*
X533188Y154892D01*
X533147Y155115D01*
X533112Y155340D01*
X533095Y155395D01*
X533084Y155452D01*
X533012Y155667D01*
X532946Y155885D01*
X532921Y155937D01*
X532903Y155992D01*
X532801Y156195D01*
X532705Y156402D01*
X532674Y156450D01*
X532648Y156501D01*
X532519Y156688D01*
X532395Y156879D01*
X532357Y156923D01*
X532324Y156970D01*
X532170Y157138D01*
X532020Y157309D01*
X531977Y157347D01*
X531938Y157389D01*
X531761Y157534D01*
X531590Y157682D01*
X531541Y157713D01*
X531497Y157750D01*
X531302Y157868D01*
X531111Y157991D01*
X531059Y158015D01*
X531009Y158045D01*
X530801Y158135D01*
X530594Y158230D01*
X530539Y158247D01*
X530486Y158270D01*
X530266Y158329D01*
X530048Y158395D01*
X529991Y158404D01*
X529936Y158419D01*
X529820Y158430D01*
X529485Y158481D01*
X529265Y158484D01*
X529151Y158495D01*
X436219Y158495D01*
X436159Y158491D01*
X436098Y158493D01*
X435875Y158471D01*
X435650Y158455D01*
X435591Y158443D01*
X435531Y158437D01*
X435313Y158383D01*
X435093Y158336D01*
X435037Y158316D01*
X434978Y158301D01*
X434769Y158218D01*
X434558Y158140D01*
X434505Y158112D01*
X434449Y158090D01*
X434254Y157978D01*
X434056Y157872D01*
X434007Y157836D01*
X433955Y157806D01*
X433864Y157731D01*
X433596Y157535D01*
X433435Y157378D01*
X433346Y157305D01*
X416491Y140451D01*
X414064Y139445D01*
X369086Y139445D01*
X366018Y140716D01*
X365907Y140753D01*
X365798Y140800D01*
X365637Y140844D01*
X365478Y140897D01*
X365362Y140918D01*
X365248Y140949D01*
X365135Y140960D01*
X364918Y141000D01*
X364579Y141014D01*
X364464Y141025D01*
X363268Y141025D01*
X362731Y141563D01*
X362557Y141714D01*
X362388Y141869D01*
X362342Y141900D01*
X362301Y141936D01*
X362108Y142061D01*
X361918Y142192D01*
X361869Y142216D01*
X361823Y142246D01*
X361614Y142343D01*
X361408Y142446D01*
X361356Y142463D01*
X361306Y142486D01*
X361085Y142553D01*
X360867Y142625D01*
X360813Y142635D01*
X360761Y142651D01*
X360533Y142686D01*
X360307Y142728D01*
X360252Y142730D01*
X360197Y142739D01*
X359968Y142742D01*
X359737Y142751D01*
X359683Y142745D01*
X359628Y142746D01*
X359399Y142717D01*
X359170Y142694D01*
X359117Y142681D01*
X359062Y142674D01*
X358840Y142613D01*
X358617Y142559D01*
X358566Y142538D01*
X358513Y142524D01*
X358301Y142432D01*
X358088Y142347D01*
X358040Y142320D01*
X357990Y142298D01*
X357793Y142178D01*
X357594Y142063D01*
X357559Y142035D01*
X357503Y142001D01*
X357063Y141639D01*
X357019Y141591D01*
X356985Y141563D01*
X353967Y138545D01*
X352537Y137115D01*
X351417Y136651D01*
X327152Y136651D01*
X326923Y136635D01*
X326692Y136625D01*
X326638Y136615D01*
X326584Y136611D01*
X326358Y136563D01*
X326132Y136521D01*
X326080Y136504D01*
X326026Y136492D01*
X325810Y136413D01*
X325592Y136340D01*
X325543Y136315D01*
X325491Y136296D01*
X325288Y136188D01*
X325083Y136085D01*
X325037Y136054D01*
X324989Y136028D01*
X324803Y135892D01*
X324614Y135761D01*
X324573Y135724D01*
X324529Y135691D01*
X324364Y135531D01*
X324195Y135375D01*
X324160Y135332D01*
X324121Y135294D01*
X323980Y135112D01*
X323834Y134934D01*
X323806Y134886D01*
X323772Y134843D01*
X323658Y134643D01*
X323539Y134446D01*
X323517Y134396D01*
X323490Y134348D01*
X323405Y134134D01*
X323314Y133923D01*
X323300Y133870D01*
X323280Y133819D01*
X323225Y133594D01*
X323165Y133373D01*
X323161Y133329D01*
X323145Y133265D01*
X323090Y132698D01*
X323093Y132632D01*
X323089Y132588D01*
X323089Y91735D01*
X323101Y91562D01*
X323103Y91390D01*
X323121Y91279D01*
X323129Y91166D01*
X323165Y90997D01*
X323191Y90827D01*
X323224Y90719D01*
X323248Y90609D01*
X323307Y90447D01*
X323357Y90282D01*
X323405Y90180D01*
X323444Y90074D01*
X323525Y89921D01*
X323598Y89765D01*
X323659Y89671D01*
X323712Y89572D01*
X323814Y89432D01*
X323908Y89287D01*
X323982Y89203D01*
X324049Y89112D01*
X324169Y88988D01*
X324283Y88858D01*
X324368Y88784D01*
X324446Y88703D01*
X324583Y88598D01*
X324713Y88485D01*
X324808Y88424D01*
X324897Y88355D01*
X325047Y88269D01*
X325192Y88175D01*
X325294Y88128D01*
X325392Y88072D01*
X325553Y88009D01*
X325709Y87936D01*
X325817Y87904D01*
X325921Y87862D01*
X326090Y87822D01*
X326255Y87772D01*
X326366Y87755D01*
X326475Y87728D01*
X326647Y87711D01*
X326818Y87685D01*
X326930Y87684D01*
X327042Y87673D01*
X327215Y87680D01*
X327388Y87678D01*
X327499Y87693D01*
X327612Y87698D01*
X327782Y87729D01*
X327953Y87751D01*
X328034Y87776D01*
X328172Y87802D01*
X328695Y87977D01*
X328707Y87981D01*
X328712Y87983D01*
X329088Y88139D01*
X331312Y88139D01*
X333366Y87288D01*
X347788Y72866D01*
X348639Y70812D01*
X348639Y68888D01*
X348655Y68659D01*
X348665Y68428D01*
X348675Y68374D01*
X348679Y68320D01*
X348727Y68094D01*
X348769Y67868D01*
X348786Y67816D01*
X348798Y67762D01*
X348877Y67546D01*
X348950Y67328D01*
X348975Y67279D01*
X348994Y67227D01*
X349102Y67024D01*
X349205Y66819D01*
X349236Y66773D01*
X349262Y66725D01*
X349398Y66539D01*
X349529Y66350D01*
X349566Y66309D01*
X349599Y66265D01*
X349759Y66100D01*
X349915Y65931D01*
X349958Y65896D01*
X349996Y65857D01*
X350178Y65716D01*
X350356Y65570D01*
X350404Y65542D01*
X350447Y65508D01*
X350647Y65394D01*
X350844Y65275D01*
X350894Y65253D01*
X350942Y65226D01*
X351156Y65141D01*
X351367Y65050D01*
X351420Y65036D01*
X351471Y65016D01*
X351696Y64961D01*
X351917Y64901D01*
X351961Y64897D01*
X352025Y64881D01*
X352592Y64826D01*
X352658Y64829D01*
X352702Y64825D01*
X356432Y64825D01*
X357325Y63932D01*
X357325Y37668D01*
X356432Y36775D01*
X329668Y36775D01*
X328775Y37668D01*
X328775Y63932D01*
X329668Y64825D01*
X330212Y64825D01*
X330327Y64833D01*
X330442Y64831D01*
X330611Y64853D01*
X330780Y64865D01*
X330893Y64889D01*
X331007Y64903D01*
X331172Y64948D01*
X331338Y64984D01*
X331446Y65023D01*
X331557Y65054D01*
X331713Y65121D01*
X331873Y65180D01*
X331974Y65234D01*
X332080Y65280D01*
X332225Y65368D01*
X332375Y65448D01*
X332468Y65516D01*
X332567Y65576D01*
X332698Y65684D01*
X332835Y65785D01*
X332918Y65865D01*
X333007Y65938D01*
X333121Y66063D01*
X333243Y66182D01*
X333314Y66273D01*
X333392Y66358D01*
X333488Y66498D01*
X333592Y66633D01*
X333649Y66733D01*
X333714Y66828D01*
X333790Y66980D01*
X333874Y67128D01*
X333917Y67235D01*
X333968Y67338D01*
X334022Y67499D01*
X334085Y67657D01*
X334112Y67770D01*
X334148Y67879D01*
X334179Y68046D01*
X334219Y68211D01*
X334230Y68326D01*
X334250Y68439D01*
X334257Y68609D01*
X334274Y68778D01*
X334269Y68893D01*
X334274Y69009D01*
X334257Y69178D01*
X334249Y69348D01*
X334228Y69461D01*
X334217Y69575D01*
X334176Y69741D01*
X334145Y69908D01*
X334109Y70017D01*
X334081Y70129D01*
X334018Y70287D01*
X333964Y70448D01*
X333912Y70551D01*
X333870Y70658D01*
X333785Y70805D01*
X333709Y70957D01*
X333643Y71052D01*
X333586Y71152D01*
X333513Y71241D01*
X333385Y71426D01*
X333160Y71670D01*
X333085Y71761D01*
X325462Y79384D01*
X324985Y80536D01*
X324908Y80691D01*
X324839Y80849D01*
X324781Y80945D01*
X324731Y81046D01*
X324633Y81188D01*
X324543Y81336D01*
X324471Y81423D01*
X324407Y81515D01*
X324290Y81642D01*
X324181Y81776D01*
X324098Y81852D01*
X324022Y81935D01*
X323888Y82044D01*
X323761Y82161D01*
X323668Y82224D01*
X323581Y82296D01*
X323433Y82386D01*
X323291Y82483D01*
X323190Y82533D01*
X323094Y82592D01*
X322936Y82660D01*
X322781Y82737D01*
X322674Y82773D01*
X322571Y82817D01*
X322404Y82862D01*
X322240Y82917D01*
X322130Y82937D01*
X322021Y82967D01*
X321850Y82988D01*
X321680Y83020D01*
X321567Y83024D01*
X321456Y83038D01*
X321283Y83036D01*
X321110Y83043D01*
X320998Y83031D01*
X320886Y83030D01*
X320716Y83003D01*
X320544Y82986D01*
X320434Y82959D01*
X320323Y82942D01*
X320158Y82891D01*
X319990Y82850D01*
X319886Y82808D01*
X319778Y82776D01*
X319622Y82703D01*
X319461Y82639D01*
X319363Y82583D01*
X319261Y82535D01*
X319117Y82441D01*
X318967Y82355D01*
X318901Y82301D01*
X318784Y82225D01*
X318368Y81863D01*
X318358Y81854D01*
X310109Y73606D01*
X309281Y72777D01*
X309205Y72690D01*
X309123Y72610D01*
X309019Y72475D01*
X308907Y72347D01*
X308844Y72250D01*
X308774Y72159D01*
X308690Y72012D01*
X308597Y71869D01*
X308549Y71764D01*
X308492Y71664D01*
X308429Y71506D01*
X308357Y71352D01*
X308324Y71242D01*
X308281Y71135D01*
X308241Y70969D01*
X308192Y70807D01*
X308175Y70693D01*
X308147Y70581D01*
X308131Y70412D01*
X308105Y70244D01*
X308103Y70129D01*
X308092Y70014D01*
X308099Y69844D01*
X308097Y69674D01*
X308112Y69560D01*
X308117Y69444D01*
X308148Y69277D01*
X308169Y69109D01*
X308200Y68998D01*
X308221Y68884D01*
X308275Y68723D01*
X308320Y68559D01*
X308365Y68453D01*
X308402Y68344D01*
X308478Y68192D01*
X308546Y68036D01*
X308606Y67938D01*
X308657Y67835D01*
X308754Y67695D01*
X308842Y67550D01*
X308915Y67461D01*
X308981Y67366D01*
X309096Y67241D01*
X309204Y67110D01*
X309289Y67032D01*
X309367Y66947D01*
X309499Y66839D01*
X309624Y66724D01*
X309719Y66659D01*
X309808Y66586D01*
X309954Y66498D01*
X310094Y66402D01*
X310197Y66350D01*
X310296Y66291D01*
X310452Y66224D01*
X310604Y66148D01*
X310713Y66112D01*
X310819Y66066D01*
X310983Y66022D01*
X311145Y65968D01*
X311258Y65947D01*
X311369Y65917D01*
X311484Y65906D01*
X311705Y65866D01*
X312037Y65852D01*
X312154Y65841D01*
X317650Y65841D01*
X318141Y65743D01*
X318603Y65552D01*
X319020Y65273D01*
X319373Y64920D01*
X319652Y64503D01*
X319843Y64041D01*
X319941Y63550D01*
X319941Y57049D01*
X306836Y57049D01*
X306607Y57033D01*
X306377Y57023D01*
X306323Y57013D01*
X306268Y57009D01*
X306043Y56961D01*
X305816Y56919D01*
X305764Y56902D01*
X305711Y56890D01*
X305494Y56811D01*
X305276Y56738D01*
X305227Y56713D01*
X305176Y56694D01*
X304972Y56586D01*
X304767Y56483D01*
X304722Y56452D01*
X304673Y56426D01*
X304647Y56407D01*
X304519Y56480D01*
X304322Y56599D01*
X304272Y56621D01*
X304224Y56648D01*
X304009Y56733D01*
X303798Y56824D01*
X303746Y56838D01*
X303694Y56858D01*
X303470Y56913D01*
X303249Y56973D01*
X303204Y56977D01*
X303141Y56993D01*
X302573Y57048D01*
X302508Y57045D01*
X302464Y57049D01*
X289359Y57049D01*
X289359Y63550D01*
X289457Y64041D01*
X289703Y64635D01*
X289789Y64785D01*
X289789Y64786D01*
X289790Y64788D01*
X289901Y65067D01*
X289999Y65314D01*
X290000Y65316D01*
X290000Y65317D01*
X290071Y65611D01*
X290134Y65868D01*
X290134Y65870D01*
X290134Y65871D01*
X290163Y66165D01*
X290189Y66435D01*
X290189Y66437D01*
X290189Y66438D01*
X290177Y66731D01*
X290165Y67004D01*
X290165Y67006D01*
X290165Y67008D01*
X290115Y67275D01*
X290062Y67565D01*
X290061Y67566D01*
X290061Y67568D01*
X289971Y67835D01*
X289881Y68105D01*
X289880Y68106D01*
X289880Y68108D01*
X289754Y68359D01*
X289626Y68615D01*
X289625Y68616D01*
X289624Y68617D01*
X289470Y68842D01*
X289303Y69084D01*
X289302Y69085D01*
X289301Y69086D01*
X289115Y69288D01*
X288917Y69503D01*
X288915Y69504D01*
X288914Y69505D01*
X288696Y69683D01*
X288476Y69864D01*
X288475Y69865D01*
X288473Y69866D01*
X288225Y70016D01*
X287989Y70160D01*
X287987Y70161D01*
X287986Y70161D01*
X287746Y70264D01*
X287465Y70385D01*
X287464Y70385D01*
X287462Y70386D01*
X287205Y70456D01*
X286915Y70534D01*
X286914Y70534D01*
X286912Y70535D01*
X286905Y70536D01*
X286350Y70605D01*
X286212Y70603D01*
X286128Y70611D01*
X283548Y70611D01*
X283488Y70607D01*
X283427Y70609D01*
X283204Y70587D01*
X282980Y70571D01*
X282920Y70559D01*
X282860Y70553D01*
X282642Y70499D01*
X282422Y70452D01*
X282366Y70432D01*
X282307Y70417D01*
X282098Y70334D01*
X281887Y70256D01*
X281834Y70228D01*
X281778Y70206D01*
X281583Y70094D01*
X281385Y69988D01*
X281336Y69952D01*
X281284Y69922D01*
X281193Y69847D01*
X280925Y69651D01*
X280764Y69494D01*
X280675Y69421D01*
X269615Y58361D01*
X269575Y58316D01*
X269531Y58275D01*
X269389Y58101D01*
X269241Y57931D01*
X269208Y57880D01*
X269170Y57834D01*
X269053Y57641D01*
X268931Y57453D01*
X268906Y57398D01*
X268875Y57346D01*
X268786Y57140D01*
X268691Y56936D01*
X268674Y56878D01*
X268650Y56823D01*
X268592Y56606D01*
X268526Y56391D01*
X268517Y56331D01*
X268501Y56273D01*
X268490Y56156D01*
X268439Y55828D01*
X268436Y55603D01*
X268425Y55488D01*
X268425Y37668D01*
X267532Y36775D01*
X240768Y36775D01*
X239875Y37668D01*
X239875Y63932D01*
X240768Y64825D01*
X258588Y64825D01*
X258648Y64829D01*
X258709Y64827D01*
X258932Y64849D01*
X259156Y64865D01*
X259216Y64877D01*
X259276Y64883D01*
X259494Y64937D01*
X259714Y64984D01*
X259770Y65004D01*
X259829Y65019D01*
X260038Y65102D01*
X260249Y65180D01*
X260302Y65208D01*
X260358Y65230D01*
X260553Y65342D01*
X260751Y65448D01*
X260800Y65484D01*
X260852Y65514D01*
X260943Y65589D01*
X261211Y65785D01*
X261372Y65942D01*
X261461Y66015D01*
X274241Y78794D01*
X276384Y80938D01*
X278438Y81789D01*
X300802Y81789D01*
X300862Y81793D01*
X300923Y81791D01*
X301146Y81813D01*
X301370Y81829D01*
X301430Y81841D01*
X301490Y81847D01*
X301708Y81901D01*
X301928Y81948D01*
X301984Y81968D01*
X302043Y81983D01*
X302252Y82066D01*
X302463Y82144D01*
X302516Y82172D01*
X302572Y82194D01*
X302767Y82306D01*
X302965Y82412D01*
X303014Y82448D01*
X303066Y82478D01*
X303157Y82553D01*
X303425Y82749D01*
X303586Y82906D01*
X303675Y82979D01*
X310721Y90025D01*
X310761Y90070D01*
X310805Y90111D01*
X310947Y90285D01*
X311095Y90455D01*
X311128Y90506D01*
X311166Y90552D01*
X311283Y90745D01*
X311405Y90933D01*
X311430Y90988D01*
X311461Y91040D01*
X311550Y91246D01*
X311645Y91450D01*
X311662Y91508D01*
X311686Y91563D01*
X311744Y91780D01*
X311810Y91995D01*
X311819Y92055D01*
X311835Y92113D01*
X311846Y92230D01*
X311897Y92558D01*
X311900Y92783D01*
X311911Y92898D01*
X311911Y123698D01*
X311895Y123927D01*
X311885Y124158D01*
X311875Y124212D01*
X311871Y124266D01*
X311823Y124492D01*
X311781Y124718D01*
X311764Y124770D01*
X311752Y124824D01*
X311673Y125040D01*
X311600Y125258D01*
X311575Y125307D01*
X311556Y125359D01*
X311448Y125562D01*
X311345Y125767D01*
X311314Y125813D01*
X311288Y125861D01*
X311152Y126047D01*
X311021Y126236D01*
X310984Y126277D01*
X310951Y126321D01*
X310791Y126486D01*
X310635Y126655D01*
X310592Y126690D01*
X310554Y126729D01*
X310372Y126870D01*
X310194Y127016D01*
X310146Y127044D01*
X310103Y127078D01*
X309903Y127192D01*
X309706Y127311D01*
X309656Y127333D01*
X309608Y127360D01*
X309394Y127445D01*
X309183Y127536D01*
X309130Y127550D01*
X309079Y127570D01*
X308854Y127625D01*
X308633Y127685D01*
X308589Y127689D01*
X308525Y127705D01*
X307958Y127760D01*
X307892Y127757D01*
X307848Y127761D01*
X290988Y127761D01*
X288934Y128612D01*
X287362Y130184D01*
X286511Y132238D01*
X286511Y134462D01*
X287362Y136516D01*
X288934Y138088D01*
X290988Y138939D01*
X303312Y138939D01*
X303541Y138955D01*
X303772Y138965D01*
X303826Y138975D01*
X303880Y138979D01*
X304106Y139027D01*
X304332Y139069D01*
X304384Y139086D01*
X304438Y139098D01*
X304654Y139177D01*
X304872Y139250D01*
X304921Y139275D01*
X304973Y139294D01*
X305176Y139402D01*
X305381Y139505D01*
X305427Y139536D01*
X305475Y139562D01*
X305661Y139698D01*
X305850Y139829D01*
X305891Y139866D01*
X305935Y139899D01*
X306100Y140059D01*
X306269Y140215D01*
X306304Y140258D01*
X306343Y140296D01*
X306484Y140478D01*
X306630Y140656D01*
X306658Y140704D01*
X306692Y140747D01*
X306806Y140947D01*
X306925Y141144D01*
X306947Y141194D01*
X306974Y141242D01*
X307059Y141456D01*
X307150Y141667D01*
X307164Y141720D01*
X307184Y141771D01*
X307239Y141996D01*
X307299Y142217D01*
X307303Y142261D01*
X307319Y142325D01*
X307374Y142892D01*
X307371Y142958D01*
X307375Y143002D01*
X307375Y151726D01*
X307359Y151958D01*
X307349Y152189D01*
X307339Y152241D01*
X307335Y152295D01*
X307287Y152521D01*
X307245Y152749D01*
X307227Y152800D01*
X307216Y152852D01*
X307137Y153069D01*
X307063Y153289D01*
X307042Y153327D01*
X307020Y153387D01*
X306752Y153889D01*
X306712Y153943D01*
X306690Y153984D01*
X306648Y154047D01*
X306457Y154509D01*
X306422Y154687D01*
X315400Y154687D01*
X315629Y154703D01*
X315859Y154713D01*
X315913Y154723D01*
X315968Y154727D01*
X316193Y154775D01*
X316419Y154817D01*
X316472Y154834D01*
X316525Y154846D01*
X316741Y154925D01*
X316960Y154998D01*
X317009Y155023D01*
X317060Y155041D01*
X317263Y155150D01*
X317469Y155253D01*
X317514Y155284D01*
X317563Y155310D01*
X317748Y155446D01*
X317938Y155577D01*
X317978Y155614D01*
X318023Y155647D01*
X318187Y155807D01*
X318357Y155963D01*
X318392Y156006D01*
X318431Y156044D01*
X318572Y156226D01*
X318718Y156404D01*
X318746Y156451D01*
X318780Y156495D01*
X318894Y156695D01*
X319013Y156891D01*
X319035Y156942D01*
X319062Y156990D01*
X319147Y157204D01*
X319237Y157415D01*
X319252Y157468D01*
X319272Y157519D01*
X319326Y157744D01*
X319386Y157965D01*
X319391Y158009D01*
X319406Y158073D01*
X319461Y158640D01*
X319459Y158706D01*
X319463Y158750D01*
X319447Y158979D01*
X319437Y159210D01*
X319427Y159264D01*
X319423Y159319D01*
X319375Y159544D01*
X319333Y159770D01*
X319315Y159822D01*
X319304Y159876D01*
X319225Y160092D01*
X319152Y160310D01*
X319127Y160359D01*
X319108Y160411D01*
X318999Y160614D01*
X318896Y160820D01*
X318865Y160865D01*
X318839Y160913D01*
X318704Y161099D01*
X318573Y161288D01*
X318535Y161329D01*
X318503Y161373D01*
X318343Y161538D01*
X318186Y161707D01*
X318144Y161742D01*
X318105Y161781D01*
X317924Y161922D01*
X317745Y162068D01*
X317698Y162097D01*
X317655Y162130D01*
X317455Y162244D01*
X317258Y162363D01*
X317208Y162385D01*
X317160Y162412D01*
X316945Y162498D01*
X316734Y162588D01*
X316682Y162602D01*
X316630Y162623D01*
X316406Y162677D01*
X316184Y162737D01*
X316140Y162741D01*
X316076Y162757D01*
X315509Y162812D01*
X315444Y162809D01*
X315400Y162813D01*
X306230Y162813D01*
X306229Y162818D01*
X306212Y162870D01*
X306200Y162924D01*
X306121Y163140D01*
X306048Y163358D01*
X306023Y163407D01*
X306004Y163459D01*
X305896Y163662D01*
X305793Y163867D01*
X305762Y163913D01*
X305736Y163961D01*
X305600Y164147D01*
X305469Y164336D01*
X305432Y164377D01*
X305399Y164421D01*
X305239Y164586D01*
X305083Y164755D01*
X305040Y164790D01*
X305002Y164829D01*
X304820Y164970D01*
X304642Y165116D01*
X304594Y165144D01*
X304551Y165178D01*
X304351Y165292D01*
X304154Y165411D01*
X304104Y165433D01*
X304056Y165460D01*
X303842Y165545D01*
X303631Y165636D01*
X303578Y165650D01*
X303527Y165670D01*
X303302Y165725D01*
X303081Y165785D01*
X303037Y165789D01*
X302973Y165805D01*
X302406Y165860D01*
X302340Y165857D01*
X302296Y165861D01*
X289748Y165861D01*
X289688Y165857D01*
X289627Y165859D01*
X289404Y165837D01*
X289180Y165821D01*
X289120Y165809D01*
X289060Y165803D01*
X288842Y165749D01*
X288622Y165702D01*
X288566Y165682D01*
X288507Y165667D01*
X288298Y165584D01*
X288087Y165506D01*
X288034Y165478D01*
X287978Y165456D01*
X287783Y165344D01*
X287585Y165238D01*
X287536Y165202D01*
X287484Y165172D01*
X287393Y165097D01*
X287125Y164901D01*
X286964Y164744D01*
X286875Y164671D01*
X275769Y153565D01*
X275729Y153520D01*
X275685Y153479D01*
X275543Y153305D01*
X275395Y153135D01*
X275362Y153084D01*
X275324Y153038D01*
X275207Y152845D01*
X275085Y152657D01*
X275060Y152602D01*
X275029Y152550D01*
X274940Y152344D01*
X274845Y152140D01*
X274828Y152082D01*
X274804Y152027D01*
X274746Y151810D01*
X274680Y151595D01*
X274671Y151535D01*
X274655Y151477D01*
X274644Y151360D01*
X274593Y151032D01*
X274590Y150807D01*
X274579Y150692D01*
X274579Y125888D01*
X274595Y125659D01*
X274605Y125428D01*
X274615Y125374D01*
X274619Y125320D01*
X274667Y125094D01*
X274709Y124868D01*
X274726Y124816D01*
X274738Y124762D01*
X274817Y124546D01*
X274890Y124328D01*
X274915Y124279D01*
X274934Y124227D01*
X275042Y124024D01*
X275145Y123819D01*
X275176Y123773D01*
X275202Y123725D01*
X275338Y123539D01*
X275469Y123350D01*
X275506Y123309D01*
X275539Y123265D01*
X275699Y123100D01*
X275855Y122931D01*
X275898Y122896D01*
X275936Y122857D01*
X276118Y122716D01*
X276296Y122570D01*
X276344Y122542D01*
X276387Y122508D01*
X276587Y122394D01*
X276784Y122275D01*
X276834Y122253D01*
X276882Y122226D01*
X277096Y122141D01*
X277307Y122050D01*
X277360Y122036D01*
X277411Y122016D01*
X277636Y121961D01*
X277857Y121901D01*
X277901Y121897D01*
X277965Y121881D01*
X278532Y121826D01*
X278598Y121829D01*
X278619Y121827D01*
X279515Y120932D01*
X279515Y107668D01*
X278622Y106775D01*
X259358Y106775D01*
X258240Y107893D01*
X258197Y108035D01*
X258149Y108138D01*
X258110Y108245D01*
X258029Y108396D01*
X257957Y108551D01*
X257895Y108647D01*
X257842Y108747D01*
X257740Y108886D01*
X257647Y109029D01*
X257572Y109115D01*
X257505Y109207D01*
X257385Y109330D01*
X257273Y109459D01*
X257187Y109534D01*
X257108Y109615D01*
X256972Y109720D01*
X256843Y109833D01*
X256747Y109894D01*
X256657Y109964D01*
X256508Y110049D01*
X256364Y110142D01*
X256261Y110190D01*
X256162Y110246D01*
X256002Y110310D01*
X255847Y110382D01*
X255739Y110414D01*
X255633Y110456D01*
X255466Y110497D01*
X255302Y110546D01*
X255189Y110564D01*
X255079Y110590D01*
X254908Y110607D01*
X254739Y110633D01*
X254625Y110635D01*
X254512Y110646D01*
X254340Y110638D01*
X254169Y110641D01*
X254056Y110626D01*
X253942Y110621D01*
X253774Y110590D01*
X253604Y110568D01*
X253494Y110538D01*
X253382Y110517D01*
X253220Y110463D01*
X253054Y110417D01*
X252950Y110372D01*
X252842Y110336D01*
X252688Y110259D01*
X252531Y110191D01*
X252434Y110132D01*
X252333Y110081D01*
X252191Y109983D01*
X252045Y109894D01*
X251957Y109822D01*
X251864Y109757D01*
X251737Y109640D01*
X251605Y109532D01*
X251529Y109448D01*
X251445Y109371D01*
X251336Y109238D01*
X251220Y109111D01*
X251156Y109018D01*
X251084Y108930D01*
X250995Y108783D01*
X250898Y108641D01*
X250848Y108539D01*
X250789Y108442D01*
X250721Y108285D01*
X250645Y108131D01*
X250620Y108048D01*
X250564Y107919D01*
X250493Y107654D01*
X250262Y107097D01*
X249983Y106680D01*
X249630Y106327D01*
X249213Y106048D01*
X248751Y105857D01*
X248260Y105759D01*
X243073Y105759D01*
X243073Y114300D01*
X243073Y122841D01*
X248260Y122841D01*
X248751Y122743D01*
X249213Y122552D01*
X249630Y122273D01*
X249983Y121920D01*
X250262Y121503D01*
X250479Y120979D01*
X250498Y120890D01*
X250537Y120784D01*
X250567Y120674D01*
X250635Y120517D01*
X250694Y120355D01*
X250747Y120255D01*
X250792Y120151D01*
X250881Y120004D01*
X250962Y119853D01*
X251030Y119761D01*
X251089Y119664D01*
X251198Y119531D01*
X251299Y119393D01*
X251378Y119312D01*
X251450Y119224D01*
X251576Y119108D01*
X251696Y118985D01*
X251786Y118915D01*
X251870Y118838D01*
X252011Y118741D01*
X252147Y118636D01*
X252246Y118580D01*
X252339Y118515D01*
X252493Y118439D01*
X252642Y118354D01*
X252748Y118312D01*
X252849Y118261D01*
X253012Y118207D01*
X253171Y118144D01*
X253282Y118117D01*
X253390Y118081D01*
X253558Y118050D01*
X253725Y118010D01*
X253839Y117999D01*
X253950Y117978D01*
X254121Y117971D01*
X254292Y117954D01*
X254406Y117959D01*
X254520Y117955D01*
X254690Y117971D01*
X254862Y117979D01*
X254974Y118000D01*
X255087Y118011D01*
X255253Y118052D01*
X255422Y118083D01*
X255530Y118119D01*
X255640Y118146D01*
X255799Y118210D01*
X255962Y118264D01*
X256064Y118315D01*
X256169Y118357D01*
X256318Y118443D01*
X256471Y118519D01*
X256565Y118584D01*
X256664Y118641D01*
X256799Y118746D01*
X256940Y118843D01*
X257024Y118920D01*
X257114Y118990D01*
X257233Y119113D01*
X257359Y119229D01*
X257431Y119318D01*
X257510Y119399D01*
X257611Y119538D01*
X257720Y119670D01*
X257779Y119768D01*
X257846Y119860D01*
X257927Y120011D01*
X258015Y120158D01*
X258060Y120262D01*
X258114Y120363D01*
X258172Y120524D01*
X258240Y120681D01*
X258249Y120715D01*
X259360Y121826D01*
X259567Y121841D01*
X259798Y121851D01*
X259852Y121861D01*
X259906Y121865D01*
X260132Y121913D01*
X260358Y121955D01*
X260410Y121972D01*
X260464Y121984D01*
X260680Y122063D01*
X260898Y122136D01*
X260947Y122161D01*
X260999Y122180D01*
X261202Y122288D01*
X261407Y122391D01*
X261453Y122422D01*
X261501Y122448D01*
X261687Y122584D01*
X261876Y122715D01*
X261917Y122752D01*
X261961Y122785D01*
X262126Y122945D01*
X262295Y123101D01*
X262330Y123144D01*
X262369Y123182D01*
X262510Y123364D01*
X262656Y123542D01*
X262684Y123590D01*
X262718Y123633D01*
X262832Y123833D01*
X262951Y124030D01*
X262973Y124080D01*
X263000Y124128D01*
X263085Y124342D01*
X263176Y124553D01*
X263190Y124606D01*
X263210Y124657D01*
X263265Y124882D01*
X263325Y125103D01*
X263329Y125147D01*
X263345Y125211D01*
X263400Y125778D01*
X263397Y125844D01*
X263401Y125888D01*
X263401Y142099D01*
X263393Y142214D01*
X263395Y142329D01*
X263373Y142497D01*
X263361Y142667D01*
X263337Y142780D01*
X263323Y142894D01*
X263278Y143058D01*
X263242Y143224D01*
X263203Y143332D01*
X263172Y143444D01*
X263105Y143600D01*
X263046Y143759D01*
X262992Y143861D01*
X262946Y143967D01*
X262858Y144112D01*
X262778Y144262D01*
X262710Y144355D01*
X262649Y144453D01*
X262542Y144584D01*
X262441Y144722D01*
X262361Y144804D01*
X262288Y144893D01*
X262162Y145008D01*
X262044Y145130D01*
X261953Y145200D01*
X261868Y145278D01*
X261727Y145375D01*
X261593Y145479D01*
X261493Y145536D01*
X261398Y145601D01*
X261246Y145677D01*
X261098Y145761D01*
X260991Y145803D01*
X260888Y145855D01*
X260727Y145908D01*
X260569Y145971D01*
X260456Y145998D01*
X260347Y146035D01*
X260180Y146065D01*
X260015Y146105D01*
X259900Y146116D01*
X259787Y146137D01*
X259617Y146144D01*
X259448Y146160D01*
X259332Y146155D01*
X259217Y146160D01*
X259048Y146143D01*
X258878Y146136D01*
X258765Y146115D01*
X258650Y146103D01*
X258485Y146063D01*
X258318Y146032D01*
X258209Y145995D01*
X258097Y145968D01*
X257939Y145905D01*
X257778Y145850D01*
X257675Y145799D01*
X257568Y145756D01*
X257421Y145672D01*
X257269Y145595D01*
X257174Y145530D01*
X257074Y145472D01*
X256985Y145399D01*
X256800Y145272D01*
X256555Y145046D01*
X256465Y144972D01*
X256420Y144927D01*
X256003Y144648D01*
X255541Y144457D01*
X255050Y144359D01*
X253863Y144359D01*
X253863Y152400D01*
X253863Y160441D01*
X255050Y160441D01*
X255541Y160343D01*
X256003Y160152D01*
X256420Y159873D01*
X256773Y159520D01*
X257052Y159103D01*
X257199Y158748D01*
X257276Y158593D01*
X257344Y158435D01*
X257403Y158339D01*
X257453Y158238D01*
X257551Y158096D01*
X257641Y157948D01*
X257713Y157862D01*
X257776Y157769D01*
X257894Y157641D01*
X258003Y157508D01*
X258086Y157432D01*
X258162Y157349D01*
X258296Y157240D01*
X258423Y157123D01*
X258516Y157059D01*
X258603Y156988D01*
X258750Y156898D01*
X258893Y156800D01*
X258993Y156750D01*
X259089Y156692D01*
X259248Y156624D01*
X259403Y156547D01*
X259510Y156511D01*
X259613Y156467D01*
X259779Y156421D01*
X259944Y156367D01*
X260054Y156347D01*
X260163Y156317D01*
X260334Y156296D01*
X260504Y156264D01*
X260616Y156260D01*
X260728Y156246D01*
X260901Y156248D01*
X261073Y156241D01*
X261185Y156253D01*
X261298Y156254D01*
X261469Y156281D01*
X261640Y156298D01*
X261749Y156325D01*
X261861Y156342D01*
X262026Y156393D01*
X262194Y156434D01*
X262298Y156475D01*
X262406Y156508D01*
X262562Y156581D01*
X262723Y156645D01*
X262820Y156701D01*
X262922Y156749D01*
X263067Y156843D01*
X263217Y156929D01*
X263283Y156983D01*
X263400Y157059D01*
X263816Y157421D01*
X263826Y157430D01*
X282584Y176188D01*
X284638Y177039D01*
X302296Y177039D01*
X302525Y177055D01*
X302756Y177065D01*
X302810Y177075D01*
X302864Y177079D01*
X303090Y177127D01*
X303316Y177169D01*
X303368Y177186D01*
X303422Y177198D01*
X303638Y177277D01*
X303856Y177350D01*
X303905Y177375D01*
X303957Y177394D01*
X304160Y177502D01*
X304365Y177605D01*
X304411Y177636D01*
X304459Y177662D01*
X304645Y177798D01*
X304834Y177929D01*
X304875Y177966D01*
X304919Y177999D01*
X305084Y178159D01*
X305253Y178315D01*
X305288Y178358D01*
X305327Y178396D01*
X305468Y178578D01*
X305614Y178756D01*
X305642Y178804D01*
X305676Y178847D01*
X305790Y179047D01*
X305909Y179244D01*
X305931Y179294D01*
X305958Y179342D01*
X306043Y179556D01*
X306134Y179767D01*
X306148Y179820D01*
X306168Y179871D01*
X306221Y180087D01*
X315400Y180087D01*
X315629Y180103D01*
X315859Y180113D01*
X315913Y180123D01*
X315968Y180127D01*
X316193Y180175D01*
X316419Y180217D01*
X316472Y180234D01*
X316525Y180246D01*
X316741Y180325D01*
X316960Y180398D01*
X317009Y180423D01*
X317060Y180441D01*
X317263Y180550D01*
X317469Y180653D01*
X317514Y180684D01*
X317563Y180710D01*
X317748Y180846D01*
X317938Y180977D01*
X317978Y181014D01*
X318023Y181047D01*
X318187Y181207D01*
X318357Y181363D01*
X318357Y181364D01*
X318392Y181406D01*
X318431Y181444D01*
X318431Y181445D01*
X318572Y181626D01*
X318718Y181805D01*
X318747Y181852D01*
X318780Y181895D01*
X318894Y182095D01*
X319013Y182292D01*
X319035Y182342D01*
X319062Y182390D01*
X319148Y182605D01*
X319238Y182816D01*
X319252Y182868D01*
X319273Y182920D01*
X319327Y183144D01*
X319387Y183366D01*
X319391Y183410D01*
X319407Y183474D01*
X319462Y184041D01*
X319459Y184106D01*
X319463Y184150D01*
X319463Y190191D01*
X322150Y190191D01*
X322641Y190093D01*
X323103Y189902D01*
X323520Y189623D01*
X323873Y189270D01*
X324152Y188853D01*
X324343Y188391D01*
X324441Y187900D01*
X324441Y187607D01*
X324449Y187491D01*
X324447Y187376D01*
X324469Y187207D01*
X324481Y187038D01*
X324505Y186925D01*
X324519Y186810D01*
X324564Y186647D01*
X324600Y186481D01*
X324640Y186372D01*
X324670Y186261D01*
X324737Y186106D01*
X324796Y185946D01*
X324850Y185844D01*
X324896Y185738D01*
X324984Y185593D01*
X325064Y185443D01*
X325133Y185350D01*
X325193Y185251D01*
X325301Y185120D01*
X325401Y184984D01*
X325481Y184901D01*
X325555Y184811D01*
X325680Y184697D01*
X325798Y184575D01*
X325890Y184505D01*
X325975Y184426D01*
X326115Y184330D01*
X326249Y184227D01*
X326349Y184169D01*
X326445Y184104D01*
X326596Y184028D01*
X326744Y183944D01*
X326852Y183902D01*
X326955Y183850D01*
X327115Y183797D01*
X327273Y183734D01*
X327386Y183707D01*
X327495Y183670D01*
X327662Y183640D01*
X327827Y183600D01*
X327942Y183589D01*
X328056Y183568D01*
X328225Y183561D01*
X328394Y183545D01*
X328510Y183550D01*
X328625Y183545D01*
X328794Y183562D01*
X328964Y183569D01*
X329077Y183591D01*
X329192Y183602D01*
X329285Y183625D01*
X356016Y183625D01*
X356048Y183610D01*
X356268Y183543D01*
X356487Y183470D01*
X356541Y183460D01*
X356593Y183445D01*
X356821Y183409D01*
X357048Y183368D01*
X357102Y183366D01*
X357157Y183357D01*
X357387Y183354D01*
X357617Y183345D01*
X357671Y183350D01*
X357726Y183349D01*
X357955Y183379D01*
X358184Y183402D01*
X358237Y183415D01*
X358292Y183422D01*
X358514Y183482D01*
X358737Y183537D01*
X358788Y183558D01*
X358841Y183572D01*
X359052Y183663D01*
X359266Y183749D01*
X359314Y183776D01*
X359364Y183798D01*
X359560Y183917D01*
X359761Y184032D01*
X359795Y184060D01*
X359851Y184095D01*
X360291Y184456D01*
X360335Y184505D01*
X360370Y184533D01*
X361141Y185304D01*
X361184Y185348D01*
X361224Y185394D01*
X361269Y185435D01*
X361411Y185609D01*
X361558Y185778D01*
X361591Y185829D01*
X361630Y185876D01*
X361746Y186068D01*
X361868Y186256D01*
X361894Y186311D01*
X361925Y186363D01*
X362014Y186570D01*
X362108Y186773D01*
X362126Y186831D01*
X362150Y186887D01*
X362208Y187103D01*
X362273Y187318D01*
X362283Y187378D01*
X362299Y187437D01*
X362310Y187554D01*
X362361Y187881D01*
X362364Y188107D01*
X362375Y188222D01*
X362375Y188282D01*
X363445Y189351D01*
X363614Y189413D01*
X363832Y189486D01*
X363881Y189511D01*
X363933Y189530D01*
X364136Y189638D01*
X364341Y189741D01*
X364387Y189772D01*
X364435Y189798D01*
X364621Y189934D01*
X364810Y190065D01*
X364851Y190102D01*
X364895Y190135D01*
X365060Y190295D01*
X365229Y190451D01*
X365264Y190494D01*
X365303Y190532D01*
X365444Y190714D01*
X365590Y190892D01*
X365618Y190940D01*
X365652Y190983D01*
X365766Y191183D01*
X365885Y191380D01*
X365907Y191430D01*
X365934Y191478D01*
X366019Y191692D01*
X366110Y191903D01*
X366124Y191956D01*
X366144Y192007D01*
X366199Y192232D01*
X366259Y192453D01*
X366263Y192497D01*
X366279Y192561D01*
X366334Y193128D01*
X366331Y193194D01*
X366335Y193238D01*
X366335Y193409D01*
X366954Y194903D01*
X368669Y196617D01*
X381038Y208986D01*
X381115Y209075D01*
X381199Y209157D01*
X381302Y209290D01*
X381411Y209416D01*
X381475Y209515D01*
X381548Y209609D01*
X381601Y209709D01*
X381721Y209894D01*
X381864Y210201D01*
X381918Y210304D01*
X382851Y212556D01*
X384344Y214049D01*
X386294Y214857D01*
X388406Y214857D01*
X390356Y214049D01*
X391849Y212556D01*
X392177Y211764D01*
X392177Y211763D01*
X392657Y210606D01*
X392657Y208494D01*
X391849Y206544D01*
X390356Y205051D01*
X388104Y204118D01*
X387999Y204066D01*
X387889Y204022D01*
X387744Y203939D01*
X387594Y203864D01*
X387497Y203797D01*
X387395Y203738D01*
X387307Y203666D01*
X387125Y203541D01*
X386876Y203312D01*
X386786Y203238D01*
X378000Y194452D01*
X377849Y194278D01*
X377694Y194109D01*
X377663Y194064D01*
X377627Y194022D01*
X377502Y193829D01*
X377371Y193639D01*
X377347Y193590D01*
X377317Y193544D01*
X377220Y193335D01*
X377118Y193129D01*
X377100Y193077D01*
X377077Y193027D01*
X377010Y192806D01*
X376938Y192588D01*
X376928Y192534D01*
X376912Y192482D01*
X376877Y192254D01*
X376835Y192028D01*
X376833Y191973D01*
X376825Y191919D01*
X376822Y191689D01*
X376812Y191458D01*
X376818Y191404D01*
X376817Y191349D01*
X376846Y191120D01*
X376869Y190891D01*
X376882Y190838D01*
X376889Y190784D01*
X376950Y190561D01*
X377005Y190338D01*
X377025Y190287D01*
X377039Y190234D01*
X377131Y190022D01*
X377216Y189809D01*
X377243Y189761D01*
X377265Y189711D01*
X377385Y189514D01*
X377500Y189315D01*
X377528Y189281D01*
X377562Y189225D01*
X377924Y188784D01*
X377972Y188740D01*
X378001Y188706D01*
X378425Y188282D01*
X378425Y179809D01*
X378396Y179765D01*
X378299Y179556D01*
X378197Y179350D01*
X378179Y179298D01*
X378156Y179248D01*
X378089Y179027D01*
X378017Y178809D01*
X378007Y178755D01*
X377991Y178703D01*
X377956Y178475D01*
X377914Y178249D01*
X377912Y178194D01*
X377904Y178140D01*
X377900Y177910D01*
X377891Y177679D01*
X377897Y177625D01*
X377896Y177570D01*
X377925Y177342D01*
X377948Y177112D01*
X377961Y177059D01*
X377968Y177005D01*
X378029Y176782D01*
X378084Y176559D01*
X378104Y176508D01*
X378118Y176455D01*
X378210Y176243D01*
X378295Y176030D01*
X378322Y175982D01*
X378344Y175932D01*
X378425Y175800D01*
X378425Y167109D01*
X378396Y167065D01*
X378299Y166856D01*
X378197Y166650D01*
X378179Y166598D01*
X378156Y166548D01*
X378089Y166328D01*
X378017Y166109D01*
X378007Y166055D01*
X377991Y166003D01*
X377956Y165776D01*
X377914Y165549D01*
X377912Y165494D01*
X377904Y165440D01*
X377900Y165210D01*
X377891Y164979D01*
X377897Y164925D01*
X377896Y164870D01*
X377925Y164642D01*
X377948Y164413D01*
X377961Y164359D01*
X377968Y164305D01*
X378029Y164083D01*
X378083Y163859D01*
X378104Y163808D01*
X378118Y163755D01*
X378210Y163544D01*
X378295Y163330D01*
X378322Y163282D01*
X378344Y163232D01*
X378425Y163100D01*
X378425Y156718D01*
X378441Y156489D01*
X378451Y156258D01*
X378461Y156204D01*
X378465Y156150D01*
X378513Y155924D01*
X378555Y155698D01*
X378572Y155646D01*
X378584Y155592D01*
X378663Y155376D01*
X378736Y155158D01*
X378761Y155109D01*
X378780Y155057D01*
X378888Y154854D01*
X378991Y154649D01*
X379022Y154603D01*
X379048Y154555D01*
X379184Y154369D01*
X379315Y154180D01*
X379352Y154139D01*
X379385Y154095D01*
X379545Y153930D01*
X379701Y153761D01*
X379744Y153726D01*
X379782Y153687D01*
X379964Y153546D01*
X380142Y153400D01*
X380190Y153372D01*
X380233Y153338D01*
X380433Y153224D01*
X380630Y153105D01*
X380680Y153083D01*
X380728Y153056D01*
X380942Y152971D01*
X381153Y152880D01*
X381206Y152866D01*
X381257Y152846D01*
X381482Y152791D01*
X381703Y152731D01*
X381747Y152727D01*
X381811Y152711D01*
X382378Y152656D01*
X382444Y152659D01*
X382488Y152655D01*
X408331Y152655D01*
X408391Y152659D01*
X408452Y152657D01*
X408675Y152679D01*
X408900Y152695D01*
X408959Y152707D01*
X409019Y152713D01*
X409237Y152767D01*
X409457Y152814D01*
X409513Y152834D01*
X409572Y152849D01*
X409781Y152932D01*
X409992Y153010D01*
X410045Y153038D01*
X410101Y153060D01*
X410296Y153172D01*
X410494Y153278D01*
X410543Y153314D01*
X410595Y153344D01*
X410686Y153419D01*
X410954Y153615D01*
X411115Y153772D01*
X411204Y153845D01*
X428059Y170699D01*
X430486Y171705D01*
X533165Y171705D01*
X533226Y171709D01*
X533286Y171707D01*
X533509Y171729D01*
X533734Y171745D01*
X533793Y171757D01*
X533853Y171763D01*
X534071Y171817D01*
X534291Y171864D01*
X534348Y171885D01*
X534406Y171899D01*
X534615Y171982D01*
X534826Y172060D01*
X534879Y172088D01*
X534935Y172111D01*
X535130Y172222D01*
X535328Y172328D01*
X535377Y172364D01*
X535430Y172394D01*
X535521Y172469D01*
X535788Y172665D01*
X535950Y172822D01*
X536039Y172895D01*
X536637Y173494D01*
X536771Y173543D01*
X536935Y173593D01*
X537038Y173640D01*
X537145Y173680D01*
X537297Y173761D01*
X537452Y173833D01*
X537547Y173895D01*
X537648Y173948D01*
X537786Y174050D01*
X537930Y174143D01*
X538016Y174218D01*
X538107Y174285D01*
X538230Y174404D01*
X538360Y174517D01*
X538434Y174603D01*
X538516Y174682D01*
X538621Y174818D01*
X538733Y174947D01*
X538795Y175043D01*
X538864Y175133D01*
X538949Y175282D01*
X539043Y175426D01*
X539090Y175529D01*
X539147Y175628D01*
X539210Y175787D01*
X539282Y175943D01*
X539315Y176052D01*
X539357Y176157D01*
X539397Y176324D01*
X539447Y176488D01*
X539464Y176601D01*
X539491Y176711D01*
X539508Y176882D01*
X539534Y177051D01*
X539535Y177165D01*
X539546Y177278D01*
X539539Y177450D01*
X539541Y177621D01*
X539527Y177734D01*
X539522Y177848D01*
X539490Y178016D01*
X539469Y178186D01*
X539438Y178296D01*
X539418Y178408D01*
X539363Y178570D01*
X539318Y178736D01*
X539273Y178840D01*
X539236Y178948D01*
X539160Y179101D01*
X539092Y179259D01*
X539032Y179356D01*
X538981Y179457D01*
X538884Y179599D01*
X538794Y179745D01*
X538722Y179833D01*
X538657Y179926D01*
X538541Y180052D01*
X538432Y180185D01*
X538348Y180262D01*
X538271Y180345D01*
X538138Y180454D01*
X538012Y180569D01*
X537918Y180634D01*
X537830Y180706D01*
X537683Y180795D01*
X537542Y180892D01*
X537440Y180942D01*
X537343Y181001D01*
X537185Y181069D01*
X537032Y181145D01*
X536949Y181170D01*
X536819Y181226D01*
X536404Y181338D01*
X535897Y181548D01*
X535480Y181827D01*
X535127Y182180D01*
X534848Y182597D01*
X534657Y183059D01*
X534559Y183550D01*
X534559Y187737D01*
X546100Y187737D01*
X557641Y187737D01*
X557641Y183550D01*
X557543Y183059D01*
X557352Y182597D01*
X557073Y182180D01*
X556720Y181827D01*
X556303Y181548D01*
X555798Y181339D01*
X555757Y181328D01*
X555590Y181292D01*
X555483Y181253D01*
X555373Y181223D01*
X555216Y181155D01*
X555055Y181096D01*
X554954Y181043D01*
X554850Y180998D01*
X554704Y180909D01*
X554552Y180828D01*
X554461Y180760D01*
X554363Y180701D01*
X554231Y180592D01*
X554093Y180491D01*
X554011Y180412D01*
X553923Y180340D01*
X553807Y180213D01*
X553684Y180094D01*
X553615Y180004D01*
X553538Y179920D01*
X553440Y179779D01*
X553336Y179643D01*
X553279Y179544D01*
X553215Y179451D01*
X553138Y179297D01*
X553053Y179148D01*
X553011Y179042D01*
X552961Y178941D01*
X552906Y178778D01*
X552843Y178619D01*
X552816Y178508D01*
X552780Y178400D01*
X552749Y178232D01*
X552709Y178065D01*
X552698Y177951D01*
X552677Y177840D01*
X552670Y177669D01*
X552654Y177498D01*
X552659Y177384D01*
X552654Y177270D01*
X552671Y177100D01*
X552678Y176928D01*
X552699Y176816D01*
X552710Y176703D01*
X552751Y176537D01*
X552782Y176368D01*
X552818Y176261D01*
X552845Y176150D01*
X552909Y175990D01*
X552964Y175828D01*
X553015Y175726D01*
X553057Y175621D01*
X553142Y175472D01*
X553219Y175319D01*
X553283Y175225D01*
X553340Y175126D01*
X553445Y174991D01*
X553543Y174850D01*
X553620Y174766D01*
X553689Y174676D01*
X553812Y174557D01*
X553929Y174431D01*
X554017Y174359D01*
X554099Y174280D01*
X554237Y174179D01*
X554370Y174070D01*
X554467Y174011D01*
X554559Y173944D01*
X554711Y173864D01*
X554857Y173775D01*
X554962Y173730D01*
X555062Y173676D01*
X555223Y173618D01*
X555381Y173550D01*
X555491Y173520D01*
X555562Y173495D01*
X556625Y172432D01*
X556625Y154344D01*
X556637Y154171D01*
X556639Y153999D01*
X556657Y153888D01*
X556665Y153775D01*
X556701Y153606D01*
X556727Y153436D01*
X556760Y153328D01*
X556784Y153218D01*
X556843Y153056D01*
X556893Y152891D01*
X556941Y152789D01*
X556980Y152683D01*
X557061Y152530D01*
X557134Y152374D01*
X557195Y152280D01*
X557248Y152181D01*
X557350Y152041D01*
X557444Y151896D01*
X557518Y151812D01*
X557585Y151721D01*
X557705Y151597D01*
X557819Y151467D01*
X557904Y151393D01*
X557982Y151312D01*
X558119Y151207D01*
X558249Y151094D01*
X558344Y151033D01*
X558433Y150964D01*
X558583Y150878D01*
X558728Y150784D01*
X558830Y150737D01*
X558928Y150682D01*
X559089Y150618D01*
X559245Y150545D01*
X559353Y150513D01*
X559457Y150471D01*
X559626Y150431D01*
X559791Y150381D01*
X559902Y150364D01*
X560011Y150337D01*
X560183Y150320D01*
X560354Y150294D01*
X560466Y150293D01*
X560578Y150282D01*
X560751Y150289D01*
X560924Y150287D01*
X561035Y150302D01*
X561148Y150307D01*
X561318Y150338D01*
X561489Y150360D01*
X561570Y150385D01*
X561708Y150411D01*
X562230Y150586D01*
X562243Y150590D01*
X564094Y151357D01*
X566206Y151357D01*
X568457Y150424D01*
X568569Y150387D01*
X568678Y150340D01*
X568839Y150297D01*
X568998Y150243D01*
X569114Y150222D01*
X569228Y150191D01*
X569341Y150180D01*
X569558Y150140D01*
X569896Y150126D01*
X570012Y150115D01*
X572309Y150115D01*
X573803Y149496D01*
X589800Y133499D01*
X589974Y133347D01*
X590143Y133192D01*
X590188Y133161D01*
X590230Y133125D01*
X590423Y133000D01*
X590613Y132869D01*
X590662Y132845D01*
X590708Y132815D01*
X590917Y132718D01*
X591123Y132616D01*
X591175Y132598D01*
X591225Y132575D01*
X591446Y132508D01*
X591664Y132436D01*
X591718Y132426D01*
X591770Y132410D01*
X591998Y132375D01*
X592224Y132333D01*
X592279Y132331D01*
X592333Y132323D01*
X592563Y132320D01*
X592793Y132310D01*
X592848Y132316D01*
X592903Y132315D01*
X593131Y132344D01*
X593360Y132367D01*
X593414Y132380D01*
X593468Y132387D01*
X593691Y132448D01*
X593914Y132503D01*
X593965Y132523D01*
X594018Y132538D01*
X594230Y132629D01*
X594443Y132714D01*
X594490Y132742D01*
X594541Y132763D01*
X594738Y132884D01*
X594937Y132998D01*
X594971Y133026D01*
X595027Y133060D01*
X595467Y133422D01*
X595512Y133470D01*
X595546Y133499D01*
X596800Y134753D01*
X598323Y135383D01*
X598568Y135506D01*
X598815Y135627D01*
X598824Y135633D01*
X598833Y135638D01*
X599059Y135794D01*
X599286Y135948D01*
X599294Y135955D01*
X599302Y135961D01*
X599504Y136146D01*
X599707Y136332D01*
X599714Y136340D01*
X599722Y136347D01*
X599894Y136557D01*
X600071Y136771D01*
X600076Y136779D01*
X600083Y136787D01*
X600225Y137021D01*
X600370Y137256D01*
X600374Y137265D01*
X600379Y137274D01*
X600488Y137527D01*
X600597Y137778D01*
X600600Y137788D01*
X600604Y137798D01*
X600676Y138061D01*
X600750Y138327D01*
X600751Y138337D01*
X600754Y138347D01*
X600788Y138618D01*
X600824Y138892D01*
X600824Y138902D01*
X600825Y138913D01*
X600821Y139184D01*
X600819Y139462D01*
X600817Y139472D01*
X600817Y139482D01*
X600774Y139756D01*
X600733Y140025D01*
X600730Y140035D01*
X600729Y140045D01*
X600649Y140309D01*
X600570Y140571D01*
X600566Y140581D01*
X600563Y140590D01*
X600448Y140838D01*
X600332Y141089D01*
X600327Y141098D01*
X600322Y141107D01*
X600173Y141337D01*
X600024Y141568D01*
X600018Y141576D01*
X600012Y141585D01*
X599831Y141793D01*
X599652Y142000D01*
X599644Y142007D01*
X599638Y142014D01*
X599430Y142194D01*
X599223Y142375D01*
X599215Y142381D01*
X599207Y142387D01*
X598977Y142536D01*
X598746Y142687D01*
X598738Y142690D01*
X598728Y142697D01*
X598211Y142936D01*
X598119Y142964D01*
X596655Y143710D01*
X595361Y144650D01*
X594230Y145781D01*
X593290Y147075D01*
X592647Y148337D01*
X609600Y148337D01*
X626553Y148337D01*
X625910Y147075D01*
X624970Y145781D01*
X623839Y144650D01*
X622545Y143710D01*
X621078Y142962D01*
X620921Y142899D01*
X620667Y142797D01*
X620658Y142792D01*
X620648Y142788D01*
X620407Y142649D01*
X620172Y142514D01*
X620164Y142508D01*
X620155Y142503D01*
X619940Y142334D01*
X619722Y142165D01*
X619715Y142158D01*
X619707Y142151D01*
X619518Y141956D01*
X619325Y141756D01*
X619319Y141748D01*
X619312Y141740D01*
X619152Y141520D01*
X618989Y141296D01*
X618984Y141287D01*
X618978Y141278D01*
X618851Y141036D01*
X618721Y140793D01*
X618718Y140783D01*
X618713Y140774D01*
X618620Y140515D01*
X618526Y140258D01*
X618524Y140248D01*
X618520Y140238D01*
X618464Y139967D01*
X618408Y139700D01*
X618407Y139690D01*
X618405Y139680D01*
X618387Y139405D01*
X618368Y139132D01*
X618369Y139122D01*
X618369Y139111D01*
X618389Y138840D01*
X618409Y138564D01*
X618411Y138553D01*
X618412Y138543D01*
X618471Y138276D01*
X618529Y138007D01*
X618533Y137997D01*
X618535Y137987D01*
X618632Y137727D01*
X618726Y137472D01*
X618730Y137463D01*
X618734Y137453D01*
X618867Y137209D01*
X618995Y136970D01*
X619001Y136961D01*
X619006Y136952D01*
X619172Y136729D01*
X619332Y136510D01*
X619339Y136503D01*
X619345Y136495D01*
X619541Y136296D01*
X619730Y136102D01*
X619738Y136096D01*
X619745Y136089D01*
X619964Y135922D01*
X620181Y135754D01*
X620189Y135750D01*
X620198Y135743D01*
X620695Y135464D01*
X620809Y135420D01*
X620877Y135383D01*
X622400Y134753D01*
X624973Y132180D01*
X626365Y128819D01*
X626365Y125181D01*
X624973Y121820D01*
X622400Y119247D01*
X619519Y118054D01*
X619416Y118003D01*
X619308Y117960D01*
X619161Y117875D01*
X619009Y117800D01*
X618914Y117734D01*
X618814Y117677D01*
X618680Y117573D01*
X618540Y117476D01*
X618455Y117398D01*
X618364Y117328D01*
X618245Y117206D01*
X618120Y117091D01*
X618047Y117002D01*
X617967Y116919D01*
X617867Y116781D01*
X617759Y116650D01*
X617699Y116552D01*
X617631Y116458D01*
X617551Y116308D01*
X617463Y116163D01*
X617417Y116058D01*
X617363Y115956D01*
X617305Y115796D01*
X617238Y115640D01*
X617207Y115529D01*
X617168Y115420D01*
X617132Y115254D01*
X617088Y115090D01*
X617073Y114976D01*
X617050Y114863D01*
X617038Y114693D01*
X617017Y114525D01*
X617018Y114409D01*
X617010Y114295D01*
X617022Y114125D01*
X617025Y113955D01*
X617043Y113841D01*
X617051Y113726D01*
X617087Y113560D01*
X617113Y113392D01*
X617147Y113282D01*
X617171Y113169D01*
X617230Y113009D01*
X617279Y112847D01*
X617328Y112743D01*
X617367Y112634D01*
X617448Y112484D01*
X617520Y112330D01*
X617582Y112234D01*
X617637Y112132D01*
X617737Y111995D01*
X617830Y111853D01*
X617906Y111766D01*
X617974Y111673D01*
X618093Y111551D01*
X618204Y111423D01*
X618291Y111348D01*
X618372Y111265D01*
X618507Y111161D01*
X618635Y111050D01*
X618732Y110987D01*
X618823Y110917D01*
X618924Y110863D01*
X619114Y110741D01*
X619415Y110601D01*
X619519Y110546D01*
X622400Y109353D01*
X624973Y106780D01*
X626365Y103419D01*
X626365Y99781D01*
X624973Y96420D01*
X622400Y93847D01*
X619519Y92654D01*
X619416Y92603D01*
X619308Y92560D01*
X619161Y92475D01*
X619009Y92400D01*
X618914Y92334D01*
X618814Y92277D01*
X618680Y92173D01*
X618540Y92076D01*
X618455Y91998D01*
X618364Y91928D01*
X618245Y91806D01*
X618120Y91691D01*
X618047Y91602D01*
X617967Y91519D01*
X617867Y91381D01*
X617759Y91250D01*
X617699Y91152D01*
X617631Y91058D01*
X617551Y90908D01*
X617463Y90763D01*
X617417Y90658D01*
X617363Y90556D01*
X617305Y90396D01*
X617238Y90240D01*
X617207Y90129D01*
X617168Y90020D01*
X617132Y89854D01*
X617088Y89690D01*
X617073Y89576D01*
X617050Y89463D01*
X617038Y89293D01*
X617017Y89125D01*
X617018Y89009D01*
X617010Y88895D01*
X617022Y88725D01*
X617025Y88555D01*
X617043Y88441D01*
X617051Y88326D01*
X617087Y88160D01*
X617113Y87992D01*
X617147Y87882D01*
X617171Y87769D01*
X617230Y87609D01*
X617279Y87447D01*
X617328Y87343D01*
X617367Y87234D01*
X617448Y87084D01*
X617520Y86930D01*
X617582Y86834D01*
X617637Y86732D01*
X617737Y86595D01*
X617830Y86453D01*
X617906Y86366D01*
X617974Y86273D01*
X618093Y86151D01*
X618204Y86023D01*
X618291Y85948D01*
X618372Y85865D01*
X618507Y85761D01*
X618635Y85650D01*
X618732Y85587D01*
X618823Y85517D01*
X618924Y85463D01*
X619114Y85341D01*
X619415Y85201D01*
X619519Y85146D01*
X622400Y83953D01*
X624973Y81380D01*
X626365Y78019D01*
X626365Y74381D01*
X624973Y71020D01*
X622400Y68447D01*
X619039Y67055D01*
X617728Y67055D01*
X617499Y67039D01*
X617268Y67029D01*
X617214Y67019D01*
X617160Y67015D01*
X616934Y66967D01*
X616708Y66925D01*
X616656Y66908D01*
X616602Y66896D01*
X616386Y66817D01*
X616168Y66744D01*
X616119Y66719D01*
X616067Y66700D01*
X615864Y66592D01*
X615659Y66489D01*
X615613Y66458D01*
X615565Y66432D01*
X615379Y66296D01*
X615190Y66165D01*
X615149Y66128D01*
X615105Y66095D01*
X614940Y65935D01*
X614771Y65779D01*
X614736Y65736D01*
X614697Y65698D01*
X614556Y65516D01*
X614410Y65338D01*
X614382Y65290D01*
X614348Y65247D01*
X614234Y65047D01*
X614115Y64850D01*
X614093Y64800D01*
X614066Y64752D01*
X613981Y64538D01*
X613890Y64327D01*
X613876Y64274D01*
X613856Y64223D01*
X613801Y63998D01*
X613741Y63777D01*
X613737Y63733D01*
X613721Y63669D01*
X613666Y63102D01*
X613666Y63095D01*
X613666Y63093D01*
X613669Y63033D01*
X613665Y62992D01*
X613665Y55662D01*
X613673Y55545D01*
X613672Y55427D01*
X613693Y55261D01*
X613705Y55094D01*
X613729Y54978D01*
X613744Y54862D01*
X613778Y54752D01*
X613824Y54537D01*
X613940Y54219D01*
X613974Y54107D01*
X614907Y51856D01*
X614907Y49744D01*
X614099Y47794D01*
X612606Y46301D01*
X610656Y45493D01*
X608544Y45493D01*
X606594Y46301D01*
X605101Y47794D01*
X604293Y49744D01*
X604293Y51856D01*
X605226Y54107D01*
X605263Y54219D01*
X605310Y54328D01*
X605353Y54489D01*
X605407Y54648D01*
X605428Y54764D01*
X605459Y54878D01*
X605470Y54991D01*
X605510Y55208D01*
X605524Y55546D01*
X605535Y55662D01*
X605535Y62992D01*
X605519Y63221D01*
X605509Y63452D01*
X605499Y63506D01*
X605495Y63560D01*
X605447Y63786D01*
X605405Y64012D01*
X605388Y64064D01*
X605376Y64118D01*
X605297Y64334D01*
X605224Y64552D01*
X605199Y64601D01*
X605180Y64653D01*
X605072Y64855D01*
X604969Y65061D01*
X604938Y65107D01*
X604912Y65155D01*
X604776Y65341D01*
X604645Y65530D01*
X604608Y65571D01*
X604575Y65615D01*
X604415Y65780D01*
X604259Y65949D01*
X604216Y65984D01*
X604178Y66023D01*
X603996Y66164D01*
X603818Y66310D01*
X603770Y66338D01*
X603727Y66372D01*
X603527Y66486D01*
X603330Y66605D01*
X603280Y66627D01*
X603232Y66654D01*
X603018Y66739D01*
X602807Y66830D01*
X602754Y66844D01*
X602703Y66864D01*
X602478Y66919D01*
X602257Y66979D01*
X602213Y66983D01*
X602149Y66999D01*
X601582Y67054D01*
X601516Y67051D01*
X601472Y67055D01*
X600161Y67055D01*
X596800Y68447D01*
X594227Y71020D01*
X592835Y74381D01*
X592835Y78019D01*
X594227Y81380D01*
X596800Y83953D01*
X599681Y85146D01*
X599784Y85197D01*
X599892Y85240D01*
X600039Y85324D01*
X600191Y85400D01*
X600286Y85466D01*
X600386Y85523D01*
X600520Y85627D01*
X600660Y85724D01*
X600745Y85802D01*
X600836Y85872D01*
X600955Y85994D01*
X601080Y86109D01*
X601153Y86198D01*
X601233Y86281D01*
X601333Y86419D01*
X601441Y86550D01*
X601501Y86648D01*
X601569Y86742D01*
X601649Y86892D01*
X601737Y87037D01*
X601783Y87143D01*
X601837Y87244D01*
X601895Y87404D01*
X601962Y87560D01*
X601993Y87671D01*
X602032Y87780D01*
X602068Y87946D01*
X602112Y88110D01*
X602127Y88224D01*
X602150Y88337D01*
X602162Y88507D01*
X602183Y88675D01*
X602182Y88790D01*
X602190Y88905D01*
X602178Y89075D01*
X602175Y89245D01*
X602157Y89359D01*
X602149Y89474D01*
X602113Y89640D01*
X602087Y89808D01*
X602053Y89918D01*
X602029Y90031D01*
X601971Y90190D01*
X601921Y90353D01*
X601872Y90458D01*
X601833Y90566D01*
X601752Y90715D01*
X601680Y90869D01*
X601618Y90966D01*
X601563Y91068D01*
X601463Y91205D01*
X601370Y91347D01*
X601294Y91434D01*
X601226Y91527D01*
X601107Y91649D01*
X600996Y91777D01*
X600909Y91853D01*
X600828Y91935D01*
X600694Y92039D01*
X600565Y92150D01*
X600468Y92213D01*
X600377Y92283D01*
X600275Y92337D01*
X600087Y92459D01*
X599785Y92599D01*
X599681Y92654D01*
X596800Y93847D01*
X595826Y94821D01*
X595781Y94861D01*
X595740Y94905D01*
X595566Y95048D01*
X595396Y95195D01*
X595346Y95228D01*
X595299Y95266D01*
X595106Y95383D01*
X594918Y95505D01*
X594863Y95530D01*
X594811Y95561D01*
X594605Y95650D01*
X594401Y95745D01*
X594343Y95762D01*
X594288Y95786D01*
X594071Y95844D01*
X593856Y95910D01*
X593796Y95919D01*
X593738Y95935D01*
X593621Y95946D01*
X593293Y95997D01*
X593068Y96000D01*
X592953Y96011D01*
X583088Y96011D01*
X580782Y96966D01*
X580720Y97002D01*
X580577Y97094D01*
X580473Y97143D01*
X580372Y97200D01*
X580214Y97263D01*
X580060Y97334D01*
X579950Y97368D01*
X579843Y97411D01*
X579677Y97451D01*
X579515Y97500D01*
X579401Y97517D01*
X579289Y97545D01*
X579120Y97561D01*
X578952Y97587D01*
X578837Y97589D01*
X578722Y97600D01*
X578552Y97593D01*
X578382Y97595D01*
X578268Y97580D01*
X578152Y97575D01*
X577985Y97544D01*
X577817Y97523D01*
X577706Y97492D01*
X577592Y97471D01*
X577431Y97417D01*
X577268Y97372D01*
X577162Y97327D01*
X577052Y97290D01*
X576900Y97214D01*
X576744Y97147D01*
X576646Y97087D01*
X576543Y97035D01*
X576403Y96938D01*
X576258Y96850D01*
X576169Y96777D01*
X576074Y96711D01*
X575949Y96596D01*
X575818Y96488D01*
X575740Y96403D01*
X575655Y96325D01*
X575547Y96193D01*
X575433Y96068D01*
X575367Y95973D01*
X575294Y95884D01*
X575206Y95738D01*
X575110Y95599D01*
X575059Y95495D01*
X574999Y95396D01*
X574932Y95240D01*
X574856Y95088D01*
X574820Y94979D01*
X574774Y94873D01*
X574730Y94709D01*
X574676Y94548D01*
X574655Y94434D01*
X574625Y94323D01*
X574614Y94208D01*
X574574Y93987D01*
X574560Y93655D01*
X574549Y93538D01*
X574549Y50194D01*
X574085Y49073D01*
X559227Y34215D01*
X559133Y34177D01*
X559131Y34175D01*
X559128Y34174D01*
X558871Y34046D01*
X558623Y33922D01*
X558621Y33921D01*
X558619Y33919D01*
X558381Y33755D01*
X558154Y33599D01*
X558152Y33597D01*
X558150Y33595D01*
X557937Y33400D01*
X557735Y33213D01*
X557733Y33211D01*
X557731Y33209D01*
X557544Y32980D01*
X557373Y32773D01*
X557372Y32770D01*
X557370Y32768D01*
X557216Y32515D01*
X557077Y32286D01*
X557076Y32283D01*
X557075Y32281D01*
X556961Y32015D01*
X556852Y31762D01*
X556851Y31760D01*
X556850Y31757D01*
X556778Y31489D01*
X556702Y31213D01*
X556702Y31210D01*
X556701Y31207D01*
X556700Y31194D01*
X556631Y30647D01*
X556633Y30508D01*
X556625Y30423D01*
X556625Y28168D01*
X555732Y27275D01*
X544007Y27275D01*
X543947Y27271D01*
X543886Y27273D01*
X543663Y27251D01*
X543438Y27235D01*
X543379Y27223D01*
X543319Y27217D01*
X543101Y27163D01*
X542881Y27116D01*
X542825Y27096D01*
X542766Y27081D01*
X542557Y26998D01*
X542346Y26920D01*
X542293Y26892D01*
X542237Y26870D01*
X542042Y26758D01*
X541844Y26652D01*
X541795Y26616D01*
X541743Y26586D01*
X541652Y26511D01*
X541384Y26315D01*
X541223Y26158D01*
X541134Y26085D01*
X538717Y23669D01*
X537003Y21954D01*
X535509Y21335D01*
X490991Y21335D01*
G37*
%LPD*%
%LPC*%
G36*
X221999Y57049D02*
X221999Y57049D01*
X221999Y65841D01*
X228750Y65841D01*
X229241Y65743D01*
X229703Y65552D01*
X230120Y65273D01*
X230473Y64920D01*
X230752Y64503D01*
X230943Y64041D01*
X231041Y63550D01*
X231041Y57049D01*
X221999Y57049D01*
G37*
%LPD*%
%LPC*%
G36*
X200459Y57049D02*
X200459Y57049D01*
X200459Y63550D01*
X200557Y64041D01*
X200748Y64503D01*
X201027Y64920D01*
X201380Y65273D01*
X201797Y65552D01*
X202259Y65743D01*
X202750Y65841D01*
X209501Y65841D01*
X209501Y57049D01*
X200459Y57049D01*
G37*
%LPD*%
%LPC*%
G36*
X399799Y35759D02*
X399799Y35759D01*
X399799Y44551D01*
X408841Y44551D01*
X408841Y38050D01*
X408743Y37559D01*
X408552Y37097D01*
X408273Y36680D01*
X407920Y36327D01*
X407503Y36048D01*
X407041Y35857D01*
X406550Y35759D01*
X399799Y35759D01*
G37*
%LPD*%
%LPC*%
G36*
X310899Y35759D02*
X310899Y35759D01*
X310899Y44551D01*
X319941Y44551D01*
X319941Y38050D01*
X319843Y37559D01*
X319652Y37097D01*
X319373Y36680D01*
X319020Y36327D01*
X318603Y36048D01*
X318141Y35857D01*
X317650Y35759D01*
X310899Y35759D01*
G37*
%LPD*%
%LPC*%
G36*
X221999Y35759D02*
X221999Y35759D01*
X221999Y44551D01*
X231041Y44551D01*
X231041Y38050D01*
X230943Y37559D01*
X230752Y37097D01*
X230473Y36680D01*
X230120Y36327D01*
X229703Y36048D01*
X229241Y35857D01*
X228750Y35759D01*
X221999Y35759D01*
G37*
%LPD*%
%LPC*%
G36*
X380550Y35759D02*
X380550Y35759D01*
X380059Y35857D01*
X379597Y36048D01*
X379180Y36327D01*
X378827Y36680D01*
X378548Y37097D01*
X378357Y37559D01*
X378259Y38050D01*
X378259Y44551D01*
X387301Y44551D01*
X387301Y35759D01*
X380550Y35759D01*
G37*
%LPD*%
%LPC*%
G36*
X291650Y35759D02*
X291650Y35759D01*
X291159Y35857D01*
X290697Y36048D01*
X290280Y36327D01*
X289927Y36680D01*
X289648Y37097D01*
X289457Y37559D01*
X289359Y38050D01*
X289359Y44551D01*
X298401Y44551D01*
X298401Y35759D01*
X291650Y35759D01*
G37*
%LPD*%
%LPC*%
G36*
X202750Y35759D02*
X202750Y35759D01*
X202259Y35857D01*
X201797Y36048D01*
X201380Y36327D01*
X201027Y36680D01*
X200748Y37097D01*
X200557Y37559D01*
X200459Y38050D01*
X200459Y44551D01*
X209501Y44551D01*
X209501Y35759D01*
X202750Y35759D01*
G37*
%LPD*%
%LPC*%
G36*
X613663Y156463D02*
X613663Y156463D01*
X613663Y162561D01*
X618020Y162561D01*
X619599Y162311D01*
X621120Y161816D01*
X622545Y161090D01*
X623839Y160150D01*
X624970Y159019D01*
X625910Y157725D01*
X626553Y156463D01*
X613663Y156463D01*
G37*
%LPD*%
%LPC*%
G36*
X592647Y156463D02*
X592647Y156463D01*
X593290Y157725D01*
X594230Y159019D01*
X595361Y160150D01*
X596655Y161090D01*
X598080Y161816D01*
X599601Y162311D01*
X601180Y162561D01*
X605537Y162561D01*
X605537Y156463D01*
X592647Y156463D01*
G37*
%LPD*%
%LPC*%
G36*
X27639Y28149D02*
X27639Y28149D01*
X27639Y35691D01*
X30234Y35691D01*
X31406Y35505D01*
X32535Y35138D01*
X33592Y34599D01*
X34552Y33902D01*
X35392Y33062D01*
X36089Y32102D01*
X36628Y31045D01*
X36995Y29916D01*
X37181Y28744D01*
X37181Y28149D01*
X27639Y28149D01*
G37*
%LPD*%
%LPC*%
G36*
X98043Y39609D02*
X98043Y39609D01*
X98043Y43087D01*
X114288Y43087D01*
X113947Y42262D01*
X113395Y41437D01*
X112693Y40735D01*
X111868Y40183D01*
X110950Y39803D01*
X109977Y39609D01*
X98043Y39609D01*
G37*
%LPD*%
%LPC*%
G36*
X77983Y39609D02*
X77983Y39609D01*
X77010Y39803D01*
X76092Y40183D01*
X75267Y40735D01*
X74565Y41437D01*
X74013Y42262D01*
X73672Y43087D01*
X89917Y43087D01*
X89917Y39609D01*
X77983Y39609D01*
G37*
%LPD*%
%LPC*%
G36*
X550163Y195863D02*
X550163Y195863D01*
X550163Y202341D01*
X555350Y202341D01*
X555841Y202243D01*
X556303Y202052D01*
X556720Y201773D01*
X557073Y201420D01*
X557352Y201003D01*
X557543Y200541D01*
X557641Y200050D01*
X557641Y195863D01*
X550163Y195863D01*
G37*
%LPD*%
%LPC*%
G36*
X534559Y195863D02*
X534559Y195863D01*
X534559Y200050D01*
X534657Y200541D01*
X534848Y201003D01*
X535127Y201420D01*
X535480Y201773D01*
X535897Y202052D01*
X536359Y202243D01*
X536850Y202341D01*
X542037Y202341D01*
X542037Y195863D01*
X534559Y195863D01*
G37*
%LPD*%
%LPC*%
G36*
X227469Y118363D02*
X227469Y118363D01*
X227469Y120550D01*
X227567Y121041D01*
X227758Y121503D01*
X228037Y121920D01*
X228390Y122273D01*
X228807Y122552D01*
X229269Y122743D01*
X229760Y122841D01*
X234947Y122841D01*
X234947Y118363D01*
X227469Y118363D01*
G37*
%LPD*%
%LPC*%
G36*
X229760Y105759D02*
X229760Y105759D01*
X229269Y105857D01*
X228807Y106048D01*
X228390Y106327D01*
X228037Y106680D01*
X227758Y107097D01*
X227567Y107559D01*
X227469Y108050D01*
X227469Y110237D01*
X234947Y110237D01*
X234947Y105759D01*
X229760Y105759D01*
G37*
%LPD*%
%LPC*%
G36*
X126863Y207263D02*
X126863Y207263D01*
X126863Y211241D01*
X128050Y211241D01*
X128541Y211143D01*
X129003Y210952D01*
X129420Y210673D01*
X129773Y210320D01*
X130052Y209903D01*
X130243Y209441D01*
X130341Y208950D01*
X130341Y207263D01*
X126863Y207263D01*
G37*
%LPD*%
%LPC*%
G36*
X253863Y207263D02*
X253863Y207263D01*
X253863Y211241D01*
X255050Y211241D01*
X255541Y211143D01*
X256003Y210952D01*
X256420Y210673D01*
X256773Y210320D01*
X257052Y209903D01*
X257243Y209441D01*
X257341Y208950D01*
X257341Y207263D01*
X253863Y207263D01*
G37*
%LPD*%
%LPC*%
G36*
X253863Y181863D02*
X253863Y181863D01*
X253863Y185841D01*
X255050Y185841D01*
X255541Y185743D01*
X256003Y185552D01*
X256420Y185273D01*
X256773Y184920D01*
X257052Y184503D01*
X257243Y184041D01*
X257341Y183550D01*
X257341Y181863D01*
X253863Y181863D01*
G37*
%LPD*%
%LPC*%
G36*
X253863Y195159D02*
X253863Y195159D01*
X253863Y199137D01*
X257341Y199137D01*
X257341Y197450D01*
X257243Y196959D01*
X257052Y196497D01*
X256773Y196080D01*
X256420Y195727D01*
X256003Y195448D01*
X255541Y195257D01*
X255050Y195159D01*
X253863Y195159D01*
G37*
%LPD*%
%LPC*%
G36*
X253863Y169759D02*
X253863Y169759D01*
X253863Y173737D01*
X257341Y173737D01*
X257341Y172050D01*
X257243Y171559D01*
X257052Y171097D01*
X256773Y170680D01*
X256420Y170327D01*
X256003Y170048D01*
X255541Y169857D01*
X255050Y169759D01*
X253863Y169759D01*
G37*
%LPD*%
%LPC*%
G36*
X306422Y188213D02*
X306422Y188213D01*
X306457Y188391D01*
X306648Y188853D01*
X306927Y189270D01*
X307280Y189623D01*
X307697Y189902D01*
X308159Y190093D01*
X308650Y190191D01*
X311337Y190191D01*
X311337Y188213D01*
X306422Y188213D01*
G37*
%LPD*%
D10*
X343050Y50800D03*
X393550Y50800D03*
X165250Y50800D03*
X215750Y50800D03*
X254150Y50800D03*
X304650Y50800D03*
D11*
X546100Y64800D03*
X546100Y36800D03*
X546100Y163800D03*
X546100Y191800D03*
D12*
X72800Y127000D03*
X28800Y127000D03*
D13*
X370400Y171450D03*
X370400Y184150D03*
X370400Y158750D03*
X370400Y146050D03*
X315400Y171450D03*
X315400Y184150D03*
X315400Y158750D03*
X315400Y146050D03*
D14*
X342900Y165100D03*
D15*
X109480Y64650D02*
X78480Y64650D01*
X78480Y69650D01*
X109480Y69650D01*
X109480Y64650D01*
X109480Y69400D02*
X78480Y69400D01*
X78480Y44650D02*
X109480Y44650D01*
X78480Y44650D02*
X78480Y49650D01*
X109480Y49650D01*
X109480Y44650D01*
X109480Y49400D02*
X78480Y49400D01*
D16*
X29640Y86150D02*
X15640Y86150D01*
X15640Y96150D01*
X29640Y96150D01*
X29640Y86150D01*
X29640Y95650D02*
X15640Y95650D01*
X15640Y18150D02*
X29640Y18150D01*
X15640Y18150D02*
X15640Y28150D01*
X29640Y28150D01*
X29640Y18150D01*
X29640Y27650D02*
X15640Y27650D01*
D17*
X105800Y203200D03*
X122800Y203200D03*
D18*
X268990Y114300D03*
X239010Y114300D03*
D19*
X546100Y129290D03*
X546100Y99310D03*
D18*
X378710Y114300D03*
X408690Y114300D03*
D17*
X29600Y203200D03*
X46600Y203200D03*
X249800Y177800D03*
X232800Y177800D03*
X249800Y203200D03*
X232800Y203200D03*
X249800Y152400D03*
X232800Y152400D03*
X46600Y177800D03*
X29600Y177800D03*
X169300Y203200D03*
X186300Y203200D03*
D20*
X601980Y76200D02*
X617220Y76200D01*
X617220Y101600D02*
X601980Y101600D01*
X601980Y127000D02*
X617220Y127000D01*
X617220Y152400D02*
X601980Y152400D01*
D21*
X453350Y136750D03*
X453350Y130250D03*
X453350Y123750D03*
X453350Y117250D03*
X511850Y117250D03*
X511850Y123750D03*
X511850Y130250D03*
X511850Y136750D03*
D22*
X146177Y149700D03*
X146177Y144700D03*
X146177Y139700D03*
X146177Y134700D03*
X146177Y129700D03*
D23*
X155100Y120777D03*
X160100Y120777D03*
X165100Y120777D03*
X170100Y120777D03*
X175100Y120777D03*
D22*
X184023Y129700D03*
X184023Y134700D03*
X184023Y139700D03*
X184023Y144700D03*
X184023Y149700D03*
D23*
X175100Y158623D03*
X170100Y158623D03*
X165100Y158623D03*
X160100Y158623D03*
X155100Y158623D03*
D24*
X165100Y139700D03*
D25*
X479400Y63800D03*
X469900Y63800D03*
X460400Y63800D03*
X460400Y37800D03*
X479400Y37800D03*
X469900Y37800D03*
D26*
X42300Y215900D02*
X29600Y203200D01*
X42300Y215900D02*
X69850Y215900D01*
X127000Y144700D02*
X146177Y144700D01*
X232800Y177800D02*
X241300Y186300D01*
X241300Y209550D01*
X241261Y209550D01*
X184150Y177800D02*
X133350Y177800D01*
X127000Y171450D01*
X127000Y144700D01*
X114300Y171450D02*
X69850Y215900D01*
X122000Y144700D02*
X127000Y144700D01*
X114300Y152400D02*
X114300Y171450D01*
X114300Y152400D02*
X122000Y144700D01*
X184150Y177800D02*
X196850Y190500D01*
X196850Y203200D01*
X234950Y215900D02*
X241300Y209550D01*
X234950Y215900D02*
X209550Y215900D01*
X196850Y203200D01*
X207772Y144272D02*
X207772Y144156D01*
X198316Y134700D02*
X184023Y134700D01*
X198316Y134700D02*
X207772Y144156D01*
X215900Y152400D02*
X232800Y152400D01*
X215900Y152400D02*
X207772Y144272D01*
X196850Y139700D02*
X184023Y139700D01*
X196850Y139700D02*
X203200Y146050D01*
X203200Y196850D01*
X209550Y203200D01*
X232800Y203200D01*
D27*
X22640Y91150D02*
X22640Y23150D01*
X69980Y23150D01*
X215750Y25550D02*
X215750Y50800D01*
X215750Y25550D02*
X227076Y14224D01*
X293624Y14224D02*
X304800Y25400D01*
X293624Y14224D02*
X227076Y14224D01*
X304650Y50800D02*
X304800Y50650D01*
X304800Y25400D01*
X315976Y14224D01*
X382524Y14224D02*
X393700Y25400D01*
X393550Y25550D01*
X382524Y14224D02*
X315976Y14224D01*
X215750Y25550D02*
X204424Y14224D01*
X393550Y25550D02*
X393550Y50800D01*
X393700Y25400D02*
X404876Y14224D01*
X623824Y14224D02*
X633276Y23676D01*
X633276Y141424D02*
X622300Y152400D01*
X609600Y152400D01*
X623824Y14224D02*
X404876Y14224D01*
X633276Y23676D02*
X633276Y141424D01*
X609600Y152400D02*
X570200Y191800D01*
X546100Y191800D01*
X315400Y184150D02*
X296350Y203200D01*
X292100Y203200D01*
X249800Y203200D01*
X239010Y116590D02*
X239010Y114300D01*
D28*
X292100Y190500D02*
X292100Y203200D01*
D29*
X292100Y190500D03*
X292100Y152400D03*
D27*
X215750Y88900D02*
X215750Y50800D01*
X215750Y88900D02*
X215750Y91040D01*
X239010Y114300D01*
D30*
X122800Y203200D02*
X122800Y218050D01*
X127000Y222250D01*
X177800Y222250D01*
X186300Y213750D01*
X186300Y203200D01*
X186300Y213750D02*
X194800Y222250D01*
X241300Y222250D01*
X249800Y213750D02*
X249800Y203200D01*
X249800Y213750D02*
X241300Y222250D01*
X249800Y203200D02*
X249800Y177800D01*
X249800Y152400D01*
X249800Y125090D02*
X239010Y114300D01*
X249800Y125090D02*
X249800Y152400D01*
D26*
X177927Y120777D02*
X175100Y120777D01*
X177927Y120777D02*
X180975Y123825D01*
X184150Y127000D01*
X184023Y127127D01*
X184023Y129700D01*
X213760Y91040D02*
X215750Y91040D01*
D28*
X292100Y152400D02*
X298450Y158750D01*
X315400Y158750D01*
D26*
X175100Y129700D02*
X165100Y139700D01*
X175100Y129700D02*
X184023Y129700D01*
D27*
X180975Y123675D02*
X215750Y88900D01*
X180975Y123675D02*
X180975Y123825D01*
X93980Y47150D02*
X69980Y23150D01*
X78906Y14224D02*
X204424Y14224D01*
X78906Y14224D02*
X69980Y23150D01*
D31*
X72800Y127000D02*
X74500Y128700D01*
X80580Y134780D01*
X95250Y134780D01*
X165250Y110310D02*
X170100Y115160D01*
X170100Y120777D01*
D27*
X63500Y203200D02*
X46600Y203200D01*
X63500Y203200D02*
X76200Y190500D01*
X76200Y139700D01*
X76200Y130400D01*
X74500Y128700D01*
D29*
X330200Y82550D03*
D27*
X343050Y69700D02*
X343050Y50800D01*
X343050Y69700D02*
X330200Y82550D01*
D31*
X165250Y95250D02*
X165250Y50800D01*
X165250Y95250D02*
X165250Y110310D01*
X152550Y107950D02*
X165250Y95250D01*
X152550Y107950D02*
X114300Y107950D01*
D29*
X114300Y107950D03*
X95250Y120650D03*
D31*
X95250Y134780D01*
D26*
X165100Y158623D02*
X165100Y165100D01*
X158750Y171450D01*
X139700Y171450D01*
X139700Y170970D01*
D29*
X139700Y170970D03*
X101600Y171450D03*
D26*
X76200Y146050D01*
X76200Y139700D01*
X160100Y158623D02*
X165100Y158623D01*
X170100Y158623D01*
X146177Y134700D02*
X115650Y134700D01*
X95330Y134700D01*
X95250Y134780D01*
X115650Y134700D02*
X120650Y139700D01*
X146177Y139700D01*
D27*
X197000Y82550D02*
X165250Y50800D01*
X197000Y82550D02*
X203200Y82550D01*
D29*
X203200Y82550D03*
D26*
X146177Y129700D02*
X117000Y129700D01*
X95250Y107950D01*
X63500Y107950D01*
X50800Y120650D01*
X50800Y152400D01*
X29600Y173600D02*
X29600Y177800D01*
X29600Y173600D02*
X50800Y152400D01*
X46600Y177800D02*
X33900Y190500D01*
X19050Y190500D01*
X12700Y196850D01*
X12700Y222250D01*
X19050Y228600D01*
X101600Y228600D02*
X105800Y224400D01*
X105800Y203200D01*
X101600Y228600D02*
X19050Y228600D01*
D30*
X150250Y184150D02*
X169300Y203200D01*
X150250Y184150D02*
X114300Y184150D01*
X105800Y192650D02*
X105800Y203200D01*
X105800Y192650D02*
X114300Y184150D01*
D27*
X93980Y67150D02*
X66200Y67150D01*
X44450Y111350D02*
X28800Y127000D01*
X44450Y88900D02*
X66200Y67150D01*
X44450Y88900D02*
X44450Y111350D01*
X254150Y50800D02*
X279550Y76200D01*
X304800Y76200D02*
X317500Y88900D01*
X317500Y143950D02*
X315400Y146050D01*
X304800Y76200D02*
X279550Y76200D01*
X317500Y88900D02*
X317500Y133350D01*
X317500Y143950D01*
D26*
X175227Y158750D02*
X175100Y158623D01*
X182118Y154933D02*
X182118Y151605D01*
X184023Y149700D01*
X182118Y154933D02*
X178301Y158750D01*
X175227Y158750D01*
X184023Y149700D02*
X184023Y144700D01*
X315400Y146050D02*
X321750Y139700D01*
X357948Y146838D02*
X357948Y177800D01*
X357948Y146838D02*
X350811Y139700D01*
X321750Y139700D01*
X357948Y177800D02*
X364298Y184150D01*
X370400Y184150D01*
X186723Y152400D02*
X184023Y149700D01*
X186723Y152400D02*
X196370Y152400D01*
X196850Y152400D01*
D29*
X196370Y152400D03*
X292100Y133350D03*
D28*
X609600Y76200D02*
X609600Y50800D01*
D29*
X609600Y50800D03*
X387350Y209550D03*
D28*
X370400Y192600D01*
X370400Y184150D01*
D27*
X317500Y133350D02*
X292100Y133350D01*
D28*
X469900Y37800D02*
X472586Y40486D01*
X472586Y45483D01*
X477903Y50800D01*
X520700Y50800D01*
X534700Y64800D02*
X546100Y64800D01*
X534700Y64800D02*
X520700Y50800D01*
X546100Y64800D02*
X546100Y99310D01*
X479400Y37800D02*
X491800Y25400D01*
X534700Y25400D02*
X546100Y36800D01*
X534700Y25400D02*
X491800Y25400D01*
D31*
X511850Y123750D02*
X511850Y130250D01*
D26*
X527800Y114300D01*
X571500Y101600D02*
X571500Y50800D01*
X557500Y36800D02*
X546100Y36800D01*
X533400Y114300D02*
X527800Y114300D01*
X533400Y114300D02*
X558800Y114300D01*
X571500Y101600D01*
X571500Y50800D02*
X557500Y36800D01*
D28*
X533400Y114300D02*
X533400Y146050D01*
D29*
X533400Y146050D03*
X565150Y146050D03*
D28*
X571500Y146050D01*
X590550Y127000D01*
X609600Y127000D01*
D26*
X381000Y112010D02*
X378710Y114300D01*
X381000Y76200D02*
X387350Y69850D01*
X412750Y69850D01*
X419100Y63500D01*
X419100Y57150D01*
X425450Y50800D01*
X463550Y50800D01*
X469900Y57150D01*
X469900Y63800D01*
X381000Y76200D02*
X381000Y112010D01*
D27*
X546100Y129290D02*
X546100Y163800D01*
X546100Y129290D02*
X548390Y127000D01*
X558800Y127000D01*
X584200Y101600D02*
X609600Y101600D01*
X584200Y101600D02*
X558800Y127000D01*
D32*
X412750Y146050D02*
X370400Y146050D01*
X412750Y146050D02*
X431800Y165100D01*
X544800Y165100D01*
X546100Y163800D01*
D27*
X268990Y154690D02*
X268990Y114300D01*
X285750Y171450D02*
X315400Y171450D01*
X285750Y171450D02*
X268990Y154690D01*
D28*
X460400Y98400D02*
X460400Y63800D01*
X453350Y105450D02*
X453350Y117250D01*
X453350Y105450D02*
X460400Y98400D01*
X479400Y63800D02*
X495000Y63800D01*
X495300Y63500D01*
X511850Y80050D01*
X511850Y117250D01*
D26*
X511850Y136750D02*
X453350Y136750D01*
D31*
X418140Y123750D02*
X408690Y114300D01*
X418140Y123750D02*
X431800Y123750D01*
X453350Y123750D01*
X438300Y130250D02*
X431800Y123750D01*
X438300Y130250D02*
X453350Y130250D01*
M02*
