G04 EAGLE Gerber RS-274X export*
G75*
%MOMM*%
%FSLAX34Y34*%
%LPD*%
%INSolderpaste Top*%
%IPPOS*%
%AMOC8*
5,1,8,0,0,1.08239X$1,22.5*%
G01*
%ADD10R,2.550000X2.500000*%
%ADD11R,1.800000X1.600000*%
%ADD12R,2.400000X2.400000*%
%ADD13R,1.300000X0.700000*%
%ADD14C,0.500000*%
%ADD15C,1.000000*%
%ADD16R,1.000000X1.100000*%
%ADD17R,1.800000X1.200000*%
%ADD18R,1.200000X1.800000*%
%ADD19R,0.750000X0.300000*%
%ADD20R,0.812800X0.304800*%
%ADD21R,0.304800X0.812800*%
%ADD22R,2.794000X2.794000*%
%ADD23R,0.550000X1.200000*%


D10*
X343050Y50800D03*
X393550Y50800D03*
X165250Y50800D03*
X215750Y50800D03*
X254150Y50800D03*
X304650Y50800D03*
D11*
X546100Y64800D03*
X546100Y36800D03*
X546100Y163800D03*
X546100Y191800D03*
D12*
X72800Y127000D03*
X28800Y127000D03*
D13*
X370400Y171450D03*
X370400Y184150D03*
X370400Y158750D03*
X370400Y146050D03*
X315400Y171450D03*
X315400Y184150D03*
X315400Y158750D03*
X315400Y146050D03*
D14*
X109480Y64650D02*
X78480Y64650D01*
X78480Y69650D01*
X109480Y69650D01*
X109480Y64650D01*
X109480Y69400D02*
X78480Y69400D01*
X78480Y44650D02*
X109480Y44650D01*
X78480Y44650D02*
X78480Y49650D01*
X109480Y49650D01*
X109480Y44650D01*
X109480Y49400D02*
X78480Y49400D01*
D15*
X29640Y86150D02*
X15640Y86150D01*
X15640Y96150D01*
X29640Y96150D01*
X29640Y86150D01*
X29640Y95650D02*
X15640Y95650D01*
X15640Y18150D02*
X29640Y18150D01*
X15640Y18150D02*
X15640Y28150D01*
X29640Y28150D01*
X29640Y18150D01*
X29640Y27650D02*
X15640Y27650D01*
D16*
X105800Y203200D03*
X122800Y203200D03*
D17*
X268990Y114300D03*
X239010Y114300D03*
D18*
X546100Y129290D03*
X546100Y99310D03*
D17*
X378710Y114300D03*
X408690Y114300D03*
D16*
X29600Y203200D03*
X46600Y203200D03*
X249800Y177800D03*
X232800Y177800D03*
X249800Y203200D03*
X232800Y203200D03*
X249800Y152400D03*
X232800Y152400D03*
X46600Y177800D03*
X29600Y177800D03*
X169300Y203200D03*
X186300Y203200D03*
D19*
X453350Y136750D03*
X453350Y130250D03*
X453350Y123750D03*
X453350Y117250D03*
X511850Y117250D03*
X511850Y123750D03*
X511850Y130250D03*
X511850Y136750D03*
D20*
X146177Y149700D03*
X146177Y144700D03*
X146177Y139700D03*
X146177Y134700D03*
X146177Y129700D03*
D21*
X155100Y120777D03*
X160100Y120777D03*
X165100Y120777D03*
X170100Y120777D03*
X175100Y120777D03*
D20*
X184023Y129700D03*
X184023Y134700D03*
X184023Y139700D03*
X184023Y144700D03*
X184023Y149700D03*
D21*
X175100Y158623D03*
X170100Y158623D03*
X165100Y158623D03*
X160100Y158623D03*
X155100Y158623D03*
D22*
X165100Y139700D03*
D23*
X479400Y63800D03*
X469900Y63800D03*
X460400Y63800D03*
X460400Y37800D03*
X479400Y37800D03*
X469900Y37800D03*
M02*
