G04 EAGLE Gerber RS-274X export*
G75*
%MOMM*%
%FSLAX34Y34*%
%LPD*%
%INSoldermask Top*%
%IPPOS*%
%AMOC8*
5,1,8,0,0,1.08239X$1,22.5*%
G01*
%ADD10R,2.753200X2.703200*%
%ADD11R,2.003200X1.803200*%
%ADD12R,2.603200X2.603200*%
%ADD13R,1.503200X0.903200*%
%ADD14C,0.697853*%
%ADD15C,1.211759*%
%ADD16R,1.203200X1.303200*%
%ADD17R,2.003200X1.403200*%
%ADD18R,1.403200X2.003200*%
%ADD19C,1.727200*%
%ADD20R,0.953200X0.503200*%
%ADD21R,1.016000X0.508000*%
%ADD22R,0.508000X1.016000*%
%ADD23R,2.997200X2.997200*%
%ADD24R,0.753200X1.403200*%
%ADD25C,0.959600*%


D10*
X343050Y50800D03*
X393550Y50800D03*
X165250Y50800D03*
X215750Y50800D03*
X254150Y50800D03*
X304650Y50800D03*
D11*
X546100Y64800D03*
X546100Y36800D03*
X546100Y163800D03*
X546100Y191800D03*
D12*
X72800Y127000D03*
X28800Y127000D03*
D13*
X370400Y171450D03*
X370400Y184150D03*
X370400Y158750D03*
X370400Y146050D03*
X315400Y171450D03*
X315400Y184150D03*
X315400Y158750D03*
X315400Y146050D03*
D14*
X109507Y64623D02*
X78453Y64623D01*
X78453Y69677D01*
X109507Y69677D01*
X109507Y64623D01*
X109507Y44623D02*
X78453Y44623D01*
X78453Y49677D01*
X109507Y49677D01*
X109507Y44623D01*
D15*
X29597Y86193D02*
X15683Y86193D01*
X15683Y96107D01*
X29597Y96107D01*
X29597Y86193D01*
X29597Y18193D02*
X15683Y18193D01*
X15683Y28107D01*
X29597Y28107D01*
X29597Y18193D01*
D16*
X105800Y203200D03*
X122800Y203200D03*
D17*
X268990Y114300D03*
X239010Y114300D03*
D18*
X546100Y129290D03*
X546100Y99310D03*
D17*
X378710Y114300D03*
X408690Y114300D03*
D16*
X29600Y203200D03*
X46600Y203200D03*
X249800Y177800D03*
X232800Y177800D03*
X249800Y203200D03*
X232800Y203200D03*
X249800Y152400D03*
X232800Y152400D03*
X46600Y177800D03*
X29600Y177800D03*
X169300Y203200D03*
X186300Y203200D03*
D19*
X601980Y76200D02*
X617220Y76200D01*
X617220Y101600D02*
X601980Y101600D01*
X601980Y127000D02*
X617220Y127000D01*
X617220Y152400D02*
X601980Y152400D01*
D20*
X453350Y136750D03*
X453350Y130250D03*
X453350Y123750D03*
X453350Y117250D03*
X511850Y117250D03*
X511850Y123750D03*
X511850Y130250D03*
X511850Y136750D03*
D21*
X146177Y149700D03*
X146177Y144700D03*
X146177Y139700D03*
X146177Y134700D03*
X146177Y129700D03*
D22*
X155100Y120777D03*
X160100Y120777D03*
X165100Y120777D03*
X170100Y120777D03*
X175100Y120777D03*
D21*
X184023Y129700D03*
X184023Y134700D03*
X184023Y139700D03*
X184023Y144700D03*
X184023Y149700D03*
D22*
X175100Y158623D03*
X170100Y158623D03*
X165100Y158623D03*
X160100Y158623D03*
X155100Y158623D03*
D23*
X165100Y139700D03*
D24*
X479400Y63800D03*
X469900Y63800D03*
X460400Y63800D03*
X460400Y37800D03*
X479400Y37800D03*
X469900Y37800D03*
D25*
X292100Y190500D03*
X292100Y152400D03*
X330200Y82550D03*
X114300Y107950D03*
X95250Y120650D03*
X139700Y170970D03*
X101600Y171450D03*
X203200Y82550D03*
X196370Y152400D03*
X292100Y133350D03*
X609600Y50800D03*
X387350Y209550D03*
X533400Y146050D03*
X565150Y146050D03*
M02*
